
<!-- Generator: visioncortex VTracer 0.6.4 -->
<svg version="1.1" xmlns="http://www.w3.org/2000/svg" viewBox="0 0 736 736" preserveAspectRatio="xMidYMid meet">
<path d="M0 0 C242.88 0 485.76 0 736 0 C736 242.88 736 485.76 736 736 C493.12 736 250.24 736 0 736 C0 493.12 0 250.24 0 0 Z " fill="#FEFEFE" transform="translate(0,0)"/>
<path d="M0 0 C19.8 0 39.6 0 60 0 C60 6.6 60 13.2 60 20 C66.6 20 73.2 20 80 20 C80 26.6 80 33.2 80 40 C86.6 40 93.2 40 100 40 C100 46.6 100 53.2 100 60 C106.6 60 113.2 60 120 60 C120 66.27 120 72.54 120 79 C126.6 79 133.2 79 140 79 C140 118.6 140 158.2 140 199 C146.27 199 152.54 199 159 199 C159 205.6 159 212.2 159 219 C165.6 219 172.2 219 179 219 C179 231.87 179 244.74 179 258 C185.6 258 192.2 258 199 258 C199 284.73 199 311.46 199 339 C192.4 339 185.8 339 179 339 C179 345.27 179 351.54 179 358 C159.53 358 140.06 358 120 358 C120 364.6 120 371.2 120 378 C126.6 378 133.2 378 140 378 C140 384.6 140 391.2 140 398 C146.27 398 152.54 398 159 398 C159 404.6 159 411.2 159 418 C172.2 418 185.4 418 199 418 C199 424.6 199 431.2 199 438 C205.6 438 212.2 438 219 438 C219 450.87 219 463.74 219 477 C159.93 477 100.86 477 40 477 C40 457.53 40 438.06 40 418 C33.4 418 26.8 418 20 418 C20 411.4 20 404.8 20 398 C13.4 398 6.8 398 0 398 C0 404.6 0 411.2 0 418 C-6.6 418 -13.2 418 -20 418 C-20 437.47 -20 456.94 -20 477 C-79.07 477 -138.14 477 -199 477 C-199 464.13 -199 451.26 -199 438 C-192.4 438 -185.8 438 -179 438 C-179 431.4 -179 424.8 -179 418 C-165.8 418 -152.6 418 -139 418 C-139 411.4 -139 404.8 -139 398 C-132.73 398 -126.46 398 -120 398 C-120 391.4 -120 384.8 -120 378 C-113.4 378 -106.8 378 -100 378 C-100 371.4 -100 364.8 -100 358 C-119.47 358 -138.94 358 -159 358 C-159 351.73 -159 345.46 -159 339 C-165.6 339 -172.2 339 -179 339 C-179 312.27 -179 285.54 -179 258 C-172.4 258 -165.8 258 -159 258 C-159 245.13 -159 232.26 -159 219 C-152.4 219 -145.8 219 -139 219 C-139 212.4 -139 205.8 -139 199 C-126.13 199 -113.26 199 -100 199 C-100 205.6 -100 212.2 -100 219 C-106.6 219 -113.2 219 -120 219 C-120 225.6 -120 232.2 -120 239 C-113.4 239 -106.8 239 -100 239 C-100 251.87 -100 264.74 -100 278 C-93.4 278 -86.8 278 -80 278 C-80 271.4 -80 264.8 -80 258 C-73.07 258 -66.14 258 -59 258 C-59 278.13 -59 298.26 -59 319 C-13.46 319 32.08 319 79 319 C79 299.2 79 279.4 79 259 C46.33 259 13.66 259 -20 259 C-20 252.4 -20 245.8 -20 239 C12.67 239 45.34 239 79 239 C79 232.4 79 225.8 79 219 C52.93 219 26.86 219 0 219 C0 212.4 0 205.8 0 199 C26.4 199 52.8 199 80 199 C80 205.6 80 212.2 80 219 C86.27 219 92.54 219 99 219 C99 212.4 99 205.8 99 199 C105.6 199 112.2 199 119 199 C119 172.93 119 146.86 119 120 C112.73 120 106.46 120 100 120 C100 139.47 100 158.94 100 179 C93.07 179 86.14 179 79 179 C79 166.13 79 153.26 79 140 C72.73 140 66.46 140 60 140 C60 152.87 60 165.74 60 179 C46.8 179 33.6 179 20 179 C20 165.8 20 152.6 20 139 C32.87 139 45.74 139 59 139 C59 126.13 59 113.26 59 100 C52.07 100 45.14 100 38 100 C38.33 87.13 38.66 74.26 39 61 C32.73 61 26.46 61 20 61 C15.497 56.497 18.353 48.359 18 42 C-0.48 41.67 -18.96 41.34 -38 41 C-38 47.6 -38 54.2 -38 61 C-43.993 63.996 -51.31 62.628 -58 63 C-58 75.21 -58 87.42 -58 100 C-64.93 100 -71.86 100 -79 100 C-79 119.47 -79 138.94 -79 159 C-73.06 159 -67.12 159 -61 159 C-60 160 -60 160 -59.886 163.694 C-59.887 165.339 -59.892 166.984 -59.902 168.629 C-59.903 169.395 -59.904 170.16 -59.905 170.949 C-59.911 173.82 -59.925 176.691 -59.938 179.562 C-59.958 185.977 -59.979 192.391 -60 199 C-72.87 199 -85.74 199 -99 199 C-99 192.4 -99 185.8 -99 179 C-92.73 179 -86.46 179 -80 179 C-80 172.73 -80 166.46 -80 160 C-86.6 160 -93.2 160 -100 160 C-100 139.87 -100 119.74 -100 99 C-93.4 99 -86.8 99 -80 99 C-80 86.13 -80 73.26 -80 60 C-73.4 60 -66.8 60 -60 60 C-60 53.4 -60 46.8 -60 40 C-53.4 40 -46.8 40 -40 40 C-40 33.4 -40 26.8 -40 20 C-26.8 20 -13.6 20 0 20 C0 13.4 0 6.8 0 0 Z " fill="#0055FC" transform="translate(358,159)"/>
<path d="M0 0 C7.284 -0.023 14.568 -0.041 21.853 -0.052 C25.235 -0.057 28.617 -0.064 31.999 -0.075 C35.883 -0.088 39.768 -0.093 43.652 -0.098 C44.872 -0.103 46.092 -0.108 47.349 -0.113 C49.03 -0.113 49.03 -0.113 50.746 -0.114 C51.738 -0.116 52.731 -0.118 53.754 -0.12 C56 0 56 0 57 1 C57.156 2.34 57.25 3.688 57.316 5.035 C57.355 5.764 57.393 6.492 57.432 7.242 C57.475 8.173 57.518 9.104 57.562 10.062 C57.779 14.487 57.779 14.487 58 19 C64.27 19.33 70.54 19.66 77 20 C77.023 25.072 77.043 30.144 77.055 35.216 C77.06 36.942 77.067 38.667 77.075 40.393 C77.088 42.873 77.093 45.352 77.098 47.832 C77.103 48.604 77.108 49.376 77.113 50.171 C77.114 53.383 77.023 55.93 76 59 C82.93 59 89.86 59 97 59 C97 71.87 97 84.74 97 98 C84.13 98 71.26 98 58 98 C58 111.2 58 124.4 58 138 C71.2 138 84.4 138 98 138 C98 125.13 98 112.26 98 99 C104.27 99 110.54 99 117 99 C117 111.87 117 124.74 117 138 C123.93 138 130.86 138 138 138 C138 118.53 138 99.06 138 79 C144.27 79 150.54 79 157 79 C157 105.07 157 131.14 157 158 C150.4 158 143.8 158 137 158 C137 164.6 137 171.2 137 178 C130.73 178 124.46 178 118 178 C118 171.4 118 164.8 118 158 C91.6 158 65.2 158 38 158 C38 164.6 38 171.2 38 178 C64.07 178 90.14 178 117 178 C117 184.6 117 191.2 117 198 C84.33 198 51.66 198 18 198 C18 204.6 18 211.2 18 218 C50.67 218 83.34 218 117 218 C117 237.8 117 257.6 117 278 C71.46 278 25.92 278 -21 278 C-21 257.87 -21 237.74 -21 217 C-27.93 217 -34.86 217 -42 217 C-42 223.6 -42 230.2 -42 237 C-48.6 237 -55.2 237 -62 237 C-62 224.13 -62 211.26 -62 198 C-68.6 198 -75.2 198 -82 198 C-82 191.4 -82 184.8 -82 178 C-75.4 178 -68.8 178 -62 178 C-62 164.8 -62 151.6 -62 138 C-61.67 138 -61.34 138 -61 138 C-61 144.6 -61 151.2 -61 158 C-48.13 158 -35.26 158 -22 158 C-22.33 145.13 -22.66 132.26 -23 119 C-28.94 118.67 -34.88 118.34 -41 118 C-41 98.53 -41 79.06 -41 59 C-34.07 59 -27.14 59 -20 59 C-20 46.79 -20 34.58 -20 22 C-17.764 20.882 -16.351 20.806 -13.867 20.684 C-12.778 20.626 -12.778 20.626 -11.667 20.568 C-10.746 20.525 -9.824 20.482 -8.875 20.438 C-5.946 20.293 -3.017 20.149 0 20 C0 13.4 0 6.8 0 0 Z " fill="#01BEFD" transform="translate(320,200)"/>
<path d="M0 0 C19.8 0 39.6 0 60 0 C60 6.6 60 13.2 60 20 C66.6 20 73.2 20 80 20 C80 26.6 80 33.2 80 40 C86.6 40 93.2 40 100 40 C100 46.6 100 53.2 100 60 C106.6 60 113.2 60 120 60 C120 66.27 120 72.54 120 79 C126.6 79 133.2 79 140 79 C140 118.6 140 158.2 140 199 C146.27 199 152.54 199 159 199 C159 205.6 159 212.2 159 219 C165.6 219 172.2 219 179 219 C179 231.87 179 244.74 179 258 C185.6 258 192.2 258 199 258 C199 284.73 199 311.46 199 339 C192.4 339 185.8 339 179 339 C179 345.27 179 351.54 179 358 C159.53 358 140.06 358 120 358 C120 364.6 120 371.2 120 378 C126.6 378 133.2 378 140 378 C140 384.6 140 391.2 140 398 C146.27 398 152.54 398 159 398 C159 404.6 159 411.2 159 418 C172.2 418 185.4 418 199 418 C199 424.6 199 431.2 199 438 C185.47 438 171.94 438 158 438 C157.67 432.39 157.34 426.78 157 421 C154.196 420.939 151.393 420.879 148.504 420.816 C145.8 420.755 143.096 420.691 140.392 420.628 C138.508 420.584 136.623 420.543 134.738 420.503 C132.035 420.445 129.332 420.381 126.629 420.316 C125.781 420.3 124.933 420.283 124.059 420.266 C118.114 420.114 118.114 420.114 117 419 C116.84 416.117 116.74 413.256 116.684 410.371 C116.663 409.507 116.642 408.643 116.621 407.752 C116.555 404.981 116.496 402.209 116.438 399.438 C116.394 397.563 116.351 395.689 116.307 393.814 C116.199 389.21 116.098 384.605 116 380 C110.72 380 105.44 380 100 380 C100 372.74 100 365.48 100 358 C106.27 358 112.54 358 119 358 C119 351.73 119 345.46 119 339 C112.4 339 105.8 339 99 339 C99 345.27 99 351.54 99 358 C92.73 357.67 86.46 357.34 80 357 C80 324.66 80 292.32 80 259 C86.27 259 92.54 259 99 259 C99 265.27 99 271.54 99 278 C105.93 278 112.86 278 120 278 C120 276.35 120 274.7 120 273 C120.33 273.99 120.66 274.98 121 276 C127.6 275.67 134.2 275.34 141 275 C141.054 278.917 141.094 282.833 141.125 286.75 C141.15 288.417 141.15 288.417 141.176 290.117 C141.182 291.187 141.189 292.257 141.195 293.359 C141.206 294.344 141.216 295.328 141.227 296.343 C140.995 299.06 140.39 300.681 139 303 C138.67 302.01 138.34 301.02 138 300 C132.39 300 126.78 300 121 300 C121 312.21 121 324.42 121 337 C139.81 337 158.62 337 178 337 C177.505 298.885 177.505 298.885 177 260 C170.73 260 164.46 260 158 260 C155.915 257.915 156.742 253.469 156.684 250.59 C156.665 249.844 156.646 249.098 156.627 248.329 C156.559 245.532 156.499 242.735 156.438 239.938 C156.293 233.688 156.149 227.439 156 221 C137.85 221 119.7 221 101 221 C100.67 226.94 100.34 232.88 100 239 C93.4 239 86.8 239 80 239 C80 232.4 80 225.8 80 219 C86.27 219 92.54 219 99 219 C99 212.4 99 205.8 99 199 C105.6 199 112.2 199 119 199 C119 172.93 119 146.86 119 120 C112.73 120 106.46 120 100 120 C100 139.47 100 158.94 100 179 C93.07 179 86.14 179 79 179 C79 166.13 79 153.26 79 140 C72.73 140 66.46 140 60 140 C60 152.87 60 165.74 60 179 C46.8 179 33.6 179 20 179 C20 165.8 20 152.6 20 139 C32.87 139 45.74 139 59 139 C59 126.13 59 113.26 59 100 C52.07 100 45.14 100 38 100 C38.33 87.13 38.66 74.26 39 61 C32.73 61 26.46 61 20 61 C15.497 56.497 18.353 48.359 18 42 C-0.48 41.67 -18.96 41.34 -38 41 C-38 47.6 -38 54.2 -38 61 C-43.993 63.996 -51.31 62.628 -58 63 C-58 75.21 -58 87.42 -58 100 C-64.93 100 -71.86 100 -79 100 C-79 119.47 -79 138.94 -79 159 C-73.06 159 -67.12 159 -61 159 C-60 160 -60 160 -59.886 163.694 C-59.887 165.339 -59.892 166.984 -59.902 168.629 C-59.903 169.395 -59.904 170.16 -59.905 170.949 C-59.911 173.82 -59.925 176.691 -59.938 179.562 C-59.958 185.977 -59.979 192.391 -60 199 C-72.87 199 -85.74 199 -99 199 C-99 192.4 -99 185.8 -99 179 C-92.73 179 -86.46 179 -80 179 C-80 172.73 -80 166.46 -80 160 C-86.6 160 -93.2 160 -100 160 C-100 139.87 -100 119.74 -100 99 C-93.4 99 -86.8 99 -80 99 C-80 86.13 -80 73.26 -80 60 C-73.4 60 -66.8 60 -60 60 C-60 53.4 -60 46.8 -60 40 C-53.4 40 -46.8 40 -40 40 C-40 33.4 -40 26.8 -40 20 C-26.8 20 -13.6 20 0 20 C0 13.4 0 6.8 0 0 Z " fill="#2653AD" transform="translate(358,159)"/>
<path d="M0 0 C12.87 0 25.74 0 39 0 C39 6.6 39 13.2 39 20 C32.4 20 25.8 20 19 20 C19 26.6 19 33.2 19 40 C25.6 40 32.2 40 39 40 C39 52.87 39 65.74 39 79 C45.6 79 52.2 79 59 79 C59 72.4 59 65.8 59 59 C65.93 59 72.86 59 80 59 C80 92 80 125 80 159 C92.87 159 105.74 159 119 159 C119 165.6 119 172.2 119 179 C125.6 179 132.2 179 139 179 C139 192.2 139 205.4 139 219 C132.4 219 125.8 219 119 219 C119 238.47 119 257.94 119 278 C59.93 278 0.86 278 -60 278 C-60 265.13 -60 252.26 -60 239 C-53.4 239 -46.8 239 -40 239 C-40 232.4 -40 225.8 -40 219 C-26.8 219 -13.6 219 0 219 C0 212.4 0 205.8 0 199 C6.27 199 12.54 199 19 199 C19 192.4 19 185.8 19 179 C25.6 179 32.2 179 39 179 C39 172.4 39 165.8 39 159 C19.53 159 0.06 159 -20 159 C-20 152.73 -20 146.46 -20 140 C-26.6 140 -33.2 140 -40 140 C-40 113.27 -40 86.54 -40 59 C-33.4 59 -26.8 59 -20 59 C-20 46.13 -20 33.26 -20 20 C-13.4 20 -6.8 20 0 20 C0 13.4 0 6.8 0 0 Z " fill="#0155FB" transform="translate(219,358)"/>
<path d="M0 0 C6.6 0 13.2 0 20 0 C20 6.27 20 12.54 20 19 C13.73 19 7.46 19 1 19 C1.33 25.93 1.66 32.86 2 40 C6.95 40 11.9 40 17 40 C18.039 44.158 18.224 48.016 18.316 52.266 C18.337 53.059 18.358 53.852 18.379 54.67 C18.445 57.196 18.504 59.723 18.562 62.25 C18.606 63.966 18.649 65.682 18.693 67.398 C18.8 71.599 18.902 75.799 19 80 C20.764 80.038 20.764 80.038 22.564 80.076 C26.912 80.17 31.26 80.27 35.608 80.372 C37.492 80.416 39.377 80.457 41.262 80.497 C43.965 80.555 46.668 80.619 49.371 80.684 C50.219 80.7 51.067 80.717 51.941 80.734 C57.886 80.886 57.886 80.886 59 82 C59 87.61 59 93.22 59 99 C79.13 99 99.26 99 120 99 C120 111.87 120 124.74 120 138 C60.93 138 1.86 138 -59 138 C-59 118.53 -59 99.06 -59 79 C-65.6 79 -72.2 79 -79 79 C-79 65.8 -79 52.6 -79 39 C-72.4 39 -65.8 39 -59 39 C-59 32.4 -59 25.8 -59 19 C-39.53 19 -20.06 19 0 19 C0 12.73 0 6.46 0 0 Z " fill="#0154FC" transform="translate(457,498)"/>
<path d="M0 0 C6.27 0 12.54 0 19 0 C19 39.27 19 78.54 19 119 C25.6 119 32.2 119 39 119 C39 125.6 39 132.2 39 139 C45.6 139 52.2 139 59 139 C59 151.87 59 164.74 59 178 C65.6 178 72.2 178 79 178 C79 204.73 79 231.46 79 259 C72.4 259 65.8 259 59 259 C59 265.27 59 271.54 59 278 C39.53 278 20.06 278 0 278 C0 284.6 0 291.2 0 298 C6.6 298 13.2 298 20 298 C20 304.6 20 311.2 20 318 C26.27 318 32.54 318 39 318 C39 324.6 39 331.2 39 338 C52.2 338 65.4 338 79 338 C79 344.6 79 351.2 79 358 C65.47 358 51.94 358 38 358 C37.67 352.39 37.34 346.78 37 341 C34.196 340.939 31.393 340.879 28.504 340.816 C25.8 340.755 23.096 340.691 20.392 340.628 C18.508 340.584 16.623 340.543 14.738 340.503 C12.035 340.445 9.332 340.381 6.629 340.316 C5.357 340.291 5.357 340.291 4.059 340.266 C-1.886 340.114 -1.886 340.114 -3 339 C-3.16 336.117 -3.26 333.256 -3.316 330.371 C-3.337 329.507 -3.358 328.643 -3.379 327.752 C-3.445 324.981 -3.504 322.209 -3.562 319.438 C-3.606 317.563 -3.649 315.689 -3.693 313.814 C-3.801 309.21 -3.902 304.605 -4 300 C-9.28 300 -14.56 300 -20 300 C-20 292.74 -20 285.48 -20 278 C-13.73 278 -7.46 278 -1 278 C-1 271.73 -1 265.46 -1 259 C-7.6 259 -14.2 259 -21 259 C-21 265.27 -21 271.54 -21 278 C-27.27 277.67 -33.54 277.34 -40 277 C-40 244.66 -40 212.32 -40 179 C-33.73 179 -27.46 179 -21 179 C-21 185.27 -21 191.54 -21 198 C-14.07 198 -7.14 198 0 198 C0 196.35 0 194.7 0 193 C0.33 193.99 0.66 194.98 1 196 C10.9 195.505 10.9 195.505 21 195 C21.054 198.917 21.094 202.833 21.125 206.75 C21.142 207.861 21.159 208.972 21.176 210.117 C21.185 211.722 21.185 211.722 21.195 213.359 C21.211 214.836 21.211 214.836 21.227 216.343 C20.995 219.06 20.39 220.681 19 223 C18.67 222.01 18.34 221.02 18 220 C12.39 220 6.78 220 1 220 C1 232.21 1 244.42 1 257 C19.81 257 38.62 257 58 257 C57.67 231.59 57.34 206.18 57 180 C50.73 180 44.46 180 38 180 C35.915 177.915 36.742 173.469 36.684 170.59 C36.665 169.844 36.646 169.098 36.627 168.329 C36.559 165.532 36.499 162.735 36.438 159.938 C36.221 150.563 36.221 150.563 36 141 C17.85 141 -0.3 141 -19 141 C-19.33 146.94 -19.66 152.88 -20 159 C-26.6 159 -33.2 159 -40 159 C-40 152.4 -40 145.8 -40 139 C-33.73 139 -27.46 139 -21 139 C-21 132.4 -21 125.8 -21 119 C-14.07 119 -7.14 119 0 119 C0 79.73 0 40.46 0 0 Z " fill="#315BA2" transform="translate(478,239)"/>
<path d="M0 0 C6.27 0 12.54 0 19 0 C19 13.2 19 26.4 19 40 C25.93 40 32.86 40 40 40 C40 46.6 40 53.2 40 60 C52.87 60 65.74 60 79 60 C79 79.47 79 98.94 79 119 C19.93 119 -39.14 119 -100 119 C-100 106.13 -100 93.26 -100 80 C-93.4 80 -86.8 80 -80 80 C-80 73.4 -80 66.8 -80 60 C-66.8 60 -53.6 60 -40 60 C-40 53.4 -40 46.8 -40 40 C-33.73 40 -27.46 40 -21 40 C-21 33.4 -21 26.8 -21 20 C-14.07 20 -7.14 20 0 20 C0 13.4 0 6.8 0 0 Z " fill="#0254F9" transform="translate(259,517)"/>
<path d="M0 0 C26.07 0 52.14 0 79 0 C79 6.6 79 13.2 79 20 C66.13 20 53.26 20 40 20 C40 33.2 40 46.4 40 60 C53.2 60 66.4 60 80 60 C80 47.13 80 34.26 80 21 C86.27 21 92.54 21 99 21 C99 33.87 99 46.74 99 60 C105.93 60 112.86 60 120 60 C120 40.53 120 21.06 120 1 C126.27 1 132.54 1 139 1 C139 27.07 139 53.14 139 80 C132.4 80 125.8 80 119 80 C119 86.6 119 93.2 119 100 C112.73 100 106.46 100 100 100 C100 93.4 100 86.8 100 80 C73.6 80 47.2 80 20 80 C20 86.6 20 93.2 20 100 C46.07 100 72.14 100 99 100 C99 106.6 99 113.2 99 120 C66.33 120 33.66 120 0 120 C0 106.8 0 93.6 0 80 C-6.6 80 -13.2 80 -20 80 C-20 60.2 -20 40.4 -20 20 C-13.4 20 -6.8 20 0 20 C0 13.4 0 6.8 0 0 Z " fill="#FDFEFD" transform="translate(338,278)"/>
<path d="M0 0 C7.284 -0.023 14.568 -0.041 21.853 -0.052 C25.235 -0.057 28.617 -0.064 31.999 -0.075 C35.883 -0.088 39.768 -0.093 43.652 -0.098 C44.872 -0.103 46.092 -0.108 47.349 -0.113 C49.03 -0.113 49.03 -0.113 50.746 -0.114 C51.738 -0.116 52.731 -0.118 53.754 -0.12 C56 0 56 0 57 1 C57.156 2.34 57.25 3.688 57.316 5.035 C57.355 5.764 57.393 6.492 57.432 7.242 C57.497 8.638 57.497 8.638 57.562 10.062 C57.779 14.487 57.779 14.487 58 19 C64.27 19.33 70.54 19.66 77 20 C77.023 25.072 77.043 30.144 77.055 35.216 C77.06 36.942 77.067 38.667 77.075 40.393 C77.088 42.873 77.093 45.352 77.098 47.832 C77.103 48.604 77.108 49.376 77.113 50.171 C77.114 53.383 77.023 55.93 76 59 C82.93 59 89.86 59 97 59 C97 65.27 97 71.54 97 78 C70.93 78 44.86 78 18 78 C18 84.6 18 91.2 18 98 C11.4 98 4.8 98 -2 98 C-2 117.8 -2 137.6 -2 158 C4.6 158 11.2 158 18 158 C18 171.2 18 184.4 18 198 C11.73 198 5.46 198 -1 198 C-1 191.4 -1 184.8 -1 178 C-7.93 178 -14.86 178 -22 178 C-22.33 158.53 -22.66 139.06 -23 119 C-28.94 118.67 -34.88 118.34 -41 118 C-41 98.53 -41 79.06 -41 59 C-34.07 59 -27.14 59 -20 59 C-20 46.79 -20 34.58 -20 22 C-17.764 20.882 -16.351 20.806 -13.867 20.684 C-12.778 20.626 -12.778 20.626 -11.667 20.568 C-10.746 20.525 -9.824 20.482 -8.875 20.438 C-5.946 20.293 -3.017 20.149 0 20 C0 13.4 0 6.8 0 0 Z " fill="#0154FA" transform="translate(320,200)"/>
<path d="M0 0 C13.2 0 26.4 0 40 0 C40 0.33 40 0.66 40 1 C33.73 1 27.46 1 21 1 C21.33 26.74 21.66 52.48 22 79 C47.74 79.33 73.48 79.66 100 80 C100 86.27 100 92.54 100 99 C106.27 99 112.54 99 119 99 C119 66.66 119 34.32 119 1 C112.73 1 106.46 1 100 1 C100 7.27 100 13.54 100 20 C99.67 20 99.34 20 99 20 C99 13.4 99 6.8 99 0 C105.93 0 112.86 0 120 0 C120 33 120 66 120 100 C132.87 100 145.74 100 159 100 C159 106.6 159 113.2 159 120 C165.6 120 172.2 120 179 120 C179 133.2 179 146.4 179 160 C159.53 160 140.06 160 120 160 C120 153.4 120 146.8 120 140 C113.07 140 106.14 140 99 140 C99 126.8 99 113.6 99 100 C92.73 100 86.46 100 80 100 C80 106.6 80 113.2 80 120 C79.67 120 79.34 120 79 120 C79 113.4 79 106.8 79 100 C59.53 100 40.06 100 20 100 C20 93.73 20 87.46 20 81 C13.4 81 6.8 81 0 81 C0 54.27 0 27.54 0 0 Z " fill="#01BEFD" transform="translate(179,417)"/>
<path d="M0 0 C1.098 -0.003 2.196 -0.006 3.327 -0.01 C5.119 -0.007 5.119 -0.007 6.947 -0.003 C8.164 -0.004 9.381 -0.005 10.635 -0.006 C13.214 -0.007 15.793 -0.005 18.373 -0.001 C22.336 0.004 26.3 -0.001 30.264 -0.007 C32.762 -0.007 35.261 -0.005 37.76 -0.003 C38.955 -0.005 40.149 -0.007 41.38 -0.01 C42.478 -0.006 43.576 -0.003 44.707 0 C46.165 0.001 46.165 0.001 47.652 0.002 C49.854 0.129 49.854 0.129 50.854 1.129 C51.014 3.939 51.113 6.727 51.17 9.54 C51.191 10.382 51.211 11.224 51.233 12.091 C51.298 14.791 51.357 17.492 51.416 20.192 C51.459 22.018 51.503 23.844 51.547 25.67 C51.655 30.157 51.754 34.643 51.854 39.129 C58.124 39.459 64.394 39.789 70.854 40.129 C71.844 44.091 71.974 47.215 71.967 51.285 C71.967 51.997 71.967 52.71 71.967 53.444 C71.967 55.792 71.959 58.141 71.951 60.489 C71.949 62.12 71.948 63.751 71.947 65.382 C71.943 69.669 71.933 73.957 71.922 78.244 C71.91 83.391 71.906 88.538 71.9 93.685 C71.89 101.5 71.871 109.315 71.854 117.129 C53.044 117.129 34.234 117.129 14.854 117.129 C14.854 104.919 14.854 92.709 14.854 80.129 C20.464 80.129 26.074 80.129 31.854 80.129 C32.184 80.789 32.514 81.449 32.854 82.129 C33.869 79.082 34.052 76.782 34.17 73.586 C34.233 71.977 34.233 71.977 34.297 70.334 C34.336 69.215 34.376 68.095 34.416 66.942 C34.481 65.245 34.481 65.245 34.547 63.514 C34.653 60.719 34.755 57.924 34.854 55.129 C33.864 55.459 32.874 55.789 31.854 56.129 C30.518 56.209 29.179 56.237 27.842 56.227 C26.706 56.222 26.706 56.222 25.547 56.217 C24.368 56.205 24.368 56.205 23.166 56.192 C21.97 56.185 21.97 56.185 20.75 56.178 C18.784 56.166 16.819 56.149 14.854 56.129 C14.359 57.119 14.359 57.119 13.854 58.129 C7.254 58.129 0.654 58.129 -6.146 58.129 C-6.146 51.529 -6.146 44.929 -6.146 38.129 C-12.746 38.129 -19.346 38.129 -26.146 38.129 C-26.146 31.859 -26.146 25.589 -26.146 19.129 C-19.546 19.129 -12.946 19.129 -6.146 19.129 C-6.186 13.251 -6.186 13.251 -6.237 7.372 C-6.239 6.643 -6.242 5.915 -6.244 5.165 C-6.252 4.041 -6.252 4.041 -6.26 2.895 C-6.015 -0.923 -3.179 0.003 0 0 Z " fill="#0155FC" transform="translate(464.146484375,378.87060546875)"/>
<path d="M0 0 C6.6 0 13.2 0 20 0 C20 12.87 20 25.74 20 39 C26.27 39 32.54 39 39 39 C39 32.4 39 25.8 39 19 C58.8 19 78.6 19 99 19 C99 12.73 99 6.46 99 0 C99.33 0 99.66 0 100 0 C100 6.27 100 12.54 100 19 C106.6 19 113.2 19 120 19 C120 58.6 120 98.2 120 139 C119.67 139 119.34 139 119 139 C119 99.73 119 60.46 119 20 C112.73 20 106.46 20 100 20 C100 59.27 100 98.54 100 139 C99.67 139 99.34 139 99 139 C99 112.93 99 86.86 99 60 C92.73 60 86.46 60 80 60 C80 79.47 80 98.94 80 119 C73.07 119 66.14 119 59 119 C59 106.13 59 93.26 59 80 C52.73 80 46.46 80 40 80 C40 92.87 40 105.74 40 119 C26.8 119 13.6 119 0 119 C0 105.8 0 92.6 0 79 C12.87 79 25.74 79 39 79 C39 66.13 39 53.26 39 40 C32.07 40 25.14 40 18 40 C18.33 27.13 18.66 14.26 19 1 C12.73 1 6.46 1 0 1 C0 0.67 0 0.34 0 0 Z " fill="#3C5C88" transform="translate(378,219)"/>
<path d="M0 0 C6.6 0 13.2 0 20 0 C20 12.87 20 25.74 20 39 C65.87 39 111.74 39 159 39 C159 33.06 159 27.12 159 21 C159.33 20.67 159.66 20.34 160 20 C166.27 20 172.54 20 179 20 C179 32.87 179 45.74 179 59 C119.93 59 60.86 59 0 59 C0 39.53 0 20.06 0 0 Z " fill="#000001" transform="translate(398,577)"/>
<path d="M0 0 C6.27 0 12.54 0 19 0 C19 19.47 19 38.94 19 59 C-40.07 59 -99.14 59 -160 59 C-160 46.13 -160 33.26 -160 20 C-153.73 20 -147.46 20 -141 20 C-136.515 24.485 -140 32.658 -140 39 C-93.8 39 -47.6 39 0 39 C0 26.13 0 13.26 0 0 Z " fill="#010102" transform="translate(319,577)"/>
<path d="M0 0 C26.07 0 52.14 0 79 0 C79 0.33 79 0.66 79 1 C59.53 1 40.06 1 20 1 C20 7.6 20 14.2 20 21 C13.4 21 6.8 21 0 21 C0 33.87 0 46.74 0 60 C6.6 60 13.2 60 20 60 C20.186 62.887 20.371 65.775 20.562 68.75 C20.624 69.612 20.685 70.474 20.748 71.362 C21.296 81.053 20.495 90.107 20 100 C46.07 100 72.14 100 99 100 C99 106.6 99 113.2 99 120 C66.33 120 33.66 120 0 120 C0 106.8 0 93.6 0 80 C-6.6 80 -13.2 80 -20 80 C-20 60.2 -20 40.4 -20 20 C-13.4 20 -6.8 20 0 20 C0 13.4 0 6.8 0 0 Z " fill="#FBCB9D" transform="translate(338,278)"/>
<path d="M0 0 C6.6 0 13.2 0 20 0 C20 6.27 20 12.54 20 19 C13.73 19 7.46 19 1 19 C1.021 21.888 1.041 24.775 1.062 27.75 C1.098 38.198 0.596 48.569 0 59 C-6.6 59 -13.2 59 -20 59 C-20 65.6 -20 72.2 -20 79 C-39.47 79 -58.94 79 -79 79 C-79 65.8 -79 52.6 -79 39 C-72.4 39 -65.8 39 -59 39 C-59 32.4 -59 25.8 -59 19 C-39.53 19 -20.06 19 0 19 C0 12.73 0 6.46 0 0 Z " fill="#01BEFD" transform="translate(457,498)"/>
<path d="M0 0 C6.27 0 12.54 0 19 0 C19 32.34 19 64.68 19 98 C12.73 98 6.46 98 0 98 C0 91.73 0 85.46 0 79 C-6.93 79 -13.86 79 -21 79 C-21 66.13 -21 53.26 -21 40 C-27.27 40 -33.54 40 -40 40 C-41.556 38.444 -41.13 36.94 -41.133 34.781 C-41.134 33.932 -41.135 33.082 -41.137 32.207 C-41.133 31.314 -41.129 30.42 -41.125 29.5 C-41.129 28.607 -41.133 27.713 -41.137 26.793 C-41.135 25.943 -41.134 25.094 -41.133 24.219 C-41.132 23.434 -41.131 22.65 -41.129 21.842 C-41 20 -41 20 -40 19 C-37.043 18.911 -34.109 18.885 -31.152 18.902 C-29.823 18.904 -29.823 18.904 -28.466 18.907 C-25.623 18.912 -22.78 18.925 -19.938 18.938 C-18.015 18.943 -16.092 18.947 -14.17 18.951 C-9.447 18.961 -4.723 18.981 0 19 C0 12.73 0 6.46 0 0 Z " fill="#010102" transform="translate(279,418)"/>
<path d="M0 0 C6.27 0 12.54 0 19 0 C19.33 6.27 19.66 12.54 20 19 C39.305 19.495 39.305 19.495 59 20 C59 26.6 59 33.2 59 40 C52.73 40 46.46 40 40 40 C40 52.87 40 65.74 40 79 C30.1 79.495 30.1 79.495 20 80 C19.67 86.27 19.34 92.54 19 99 C12.73 98.67 6.46 98.34 0 98 C0 65.66 0 33.32 0 0 Z " fill="#010002" transform="translate(438,418)"/>
<path d="M0 0 C6.27 0 12.54 0 19 0 C19 26.07 19 52.14 19 79 C12.4 79 5.8 79 -1 79 C-1 85.6 -1 92.2 -1 99 C-7.27 99 -13.54 99 -20 99 C-20 92.4 -20 85.8 -20 79 C-26.93 79 -33.86 79 -41 79 C-41.051 65.593 -40.866 52.214 -40.5 38.812 C-40.452 36.972 -40.403 35.132 -40.355 33.291 C-40.24 28.861 -40.12 24.43 -40 20 C-33.73 20 -27.46 20 -21 20 C-21 32.87 -21 45.74 -21 59 C-14.07 59 -7.14 59 0 59 C0 39.53 0 20.06 0 0 Z " fill="#FDFDFC" transform="translate(458,279)"/>
<path d="M0 0 C6.27 0 12.54 0 19 0 C19 39.27 19 78.54 19 119 C25.6 119 32.2 119 39 119 C39 125.6 39 132.2 39 139 C19.53 139 0.06 139 -20 139 C-20 132.4 -20 125.8 -20 119 C-13.4 119 -6.8 119 0 119 C0 79.73 0 40.46 0 0 Z " fill="#010102" transform="translate(478,239)"/>
<path d="M0 0 C19.47 0 38.94 0 59 0 C59 6.6 59 13.2 59 20 C46.13 20 33.26 20 20 20 C20 26.6 20 33.2 20 40 C0.53 40 -18.94 40 -39 40 C-39 33.4 -39 26.8 -39 20 C-26.13 20 -13.26 20 0 20 C0 13.4 0 6.8 0 0 Z " fill="#000103" transform="translate(358,159)"/>
<path d="M0 0 C6.6 0 13.2 0 20 0 C20 6.6 20 13.2 20 20 C26.27 20 32.54 20 39 20 C39 26.27 39 32.54 39 39 C19.2 39 -0.6 39 -21 39 C-21 45.6 -21 52.2 -21 59 C-27.27 59 -33.54 59 -40 59 C-40 46.13 -40 33.26 -40 20 C-26.8 20 -13.6 20 0 20 C0 13.4 0 6.8 0 0 Z " fill="#020306" transform="translate(438,199)"/>
<path d="M0 0 C1.645 0 3.29 0.006 4.935 0.016 C6.232 0.018 6.232 0.018 7.554 0.02 C10.326 0.026 13.097 0.038 15.869 0.051 C17.743 0.056 19.618 0.061 21.492 0.065 C26.097 0.075 30.702 0.094 35.306 0.114 C35.306 6.384 35.306 12.654 35.306 19.114 C28.706 19.114 22.106 19.114 15.306 19.114 C15.306 31.984 15.306 44.854 15.306 58.114 C8.706 58.114 2.106 58.114 -4.694 58.114 C-4.694 51.514 -4.694 44.914 -4.694 38.114 C-11.294 38.114 -17.894 38.114 -24.694 38.114 C-24.694 31.844 -24.694 25.574 -24.694 19.114 C-18.094 19.114 -11.494 19.114 -4.694 19.114 C-4.733 13.235 -4.733 13.235 -4.784 7.356 C-4.786 6.628 -4.789 5.899 -4.791 5.149 C-4.799 4.025 -4.799 4.025 -4.807 2.879 C-4.588 -0.524 -3.518 0.108 0 0 Z " fill="#02BEFC" transform="translate(462.693603515625,378.886474609375)"/>
<path d="M0 0 C32.67 0 65.34 0 99 0 C99 6.27 99 12.54 99 19 C66.33 19 33.66 19 0 19 C0 12.73 0 6.46 0 0 Z " fill="#020203" transform="translate(338,398)"/>
<path d="M0 0 C6.6 0 13.2 0 20 0 C20 26.07 20 52.14 20 79 C13.4 79 6.8 79 0 79 C0 52.93 0 26.86 0 0 Z " fill="#010101" transform="translate(537,418)"/>
<path d="M0 0 C6.6 0 13.2 0 20 0 C20 26.07 20 52.14 20 79 C13.4 79 6.8 79 0 79 C0 52.93 0 26.86 0 0 Z " fill="#000105" transform="translate(179,418)"/>
<path d="M0 0 C26.07 0 52.14 0 79 0 C79 6.6 79 13.2 79 20 C52.93 20 26.86 20 0 20 C0 13.4 0 6.8 0 0 Z " fill="#030101" transform="translate(358,358)"/>
<path d="M0 0 C12.87 0 25.74 0 39 0 C39 12.87 39 25.74 39 39 C26.13 39 13.26 39 0 39 C0 26.13 0 13.26 0 0 Z " fill="#010101" transform="translate(378,299)"/>
<path d="M0 0 C1.434 0 2.867 0.006 4.301 0.016 C5.43 0.018 5.43 0.018 6.583 0.02 C8.998 0.026 11.413 0.038 13.828 0.051 C15.461 0.056 17.095 0.061 18.728 0.065 C22.741 0.075 26.753 0.094 30.765 0.114 C30.765 6.384 30.765 12.654 30.765 19.114 C37.695 19.444 44.625 19.774 51.765 20.114 C51.765 25.724 51.765 31.334 51.765 37.114 C39.555 37.114 27.345 37.114 14.765 37.114 C14.435 30.184 14.105 23.254 13.765 16.114 C8.485 16.114 3.205 16.114 -2.235 16.114 C-2.565 15.124 -2.895 14.134 -3.235 13.114 C-2.905 12.454 -2.575 11.794 -2.235 11.114 C-2.895 11.114 -3.555 11.114 -4.235 11.114 C-4.262 9.468 -4.281 7.822 -4.297 6.176 C-4.309 5.26 -4.32 4.343 -4.332 3.399 C-4.178 -0.215 -3.713 0.13 0 0 Z " fill="#02BEFC" transform="translate(384.234619140625,180.886474609375)"/>
<path d="M0 0 C6.6 0 13.2 0 20 0 C20 6.6 20 13.2 20 20 C26.27 20 32.54 20 39 20 C39 26.6 39 33.2 39 40 C26.13 40 13.26 40 0 40 C0 26.8 0 13.6 0 0 Z " fill="#020307" transform="translate(478,537)"/>
<path d="M0 0 C6.6 0 13.2 0 20 0 C20 13.2 20 26.4 20 40 C7.13 40 -5.74 40 -19 40 C-19 33.4 -19 26.8 -19 20 C-12.73 20 -6.46 20 0 20 C0 13.4 0 6.8 0 0 Z " fill="#020307" transform="translate(238,537)"/>
<path d="M0 0 C6.6 0 13.2 0 20 0 C20 19.47 20 38.94 20 59 C13.4 59 6.8 59 0 59 C0 39.53 0 20.06 0 0 Z " fill="#08BAFA" transform="translate(279,259)"/>
<path d="M0 0 C12.87 0 25.74 0 39 0 C39 13.2 39 26.4 39 40 C32.73 40 26.46 40 20 40 C20 33.4 20 26.8 20 20 C13.4 20 6.8 20 0 20 C0 13.4 0 6.8 0 0 Z " fill="#020206" transform="translate(299,358)"/>
<path d="M0 0 C6.27 0 12.54 0 19 0 C20.148 41.084 20.148 41.084 20 59 C13.07 59 6.14 59 -1 59 C-1.051 45.593 -0.866 32.214 -0.5 18.812 C-0.452 16.972 -0.403 15.132 -0.355 13.291 C-0.24 8.861 -0.12 4.43 0 0 Z " fill="#FDCB9A" transform="translate(418,299)"/>
<path d="M0 0 C6.27 0 12.54 0 19 0 C19 12.87 19 25.74 19 39 C6.13 39 -6.74 39 -20 39 C-20 32.4 -20 25.8 -20 19 C-13.4 19 -6.8 19 0 19 C0 12.73 0 6.46 0 0 Z " fill="#010205" transform="translate(279,319)"/>
<path d="M0 0 C19.47 0 38.94 0 59 0 C59 6.27 59 12.54 59 19 C39.53 19 20.06 19 0 19 C0 12.73 0 6.46 0 0 Z " fill="#020205" transform="translate(478,498)"/>
<path d="M0 0 C6.27 0 12.54 0 19 0 C19 19.47 19 38.94 19 59 C12.73 59 6.46 59 0 59 C0 39.53 0 20.06 0 0 Z " fill="#010102" transform="translate(259,259)"/>
<path d="M0 0 C1.028 0.002 2.056 0.004 3.116 0.007 C4.857 0.007 4.857 0.007 6.634 0.007 C8.529 0.015 8.529 0.015 10.463 0.023 C12.392 0.025 12.392 0.025 14.36 0.027 C17.784 0.031 21.209 0.041 24.633 0.052 C28.125 0.062 31.617 0.066 35.109 0.071 C41.966 0.082 48.822 0.1 55.678 0.12 C55.678 6.39 55.678 12.66 55.678 19.12 C36.208 19.12 16.738 19.12 -3.322 19.12 C-3.322 0.172 -3.322 0.172 0 0 Z " fill="#020204" transform="translate(202.32215881347656,497.87974548339844)"/>
<path d="M0 0 C13.2 0 26.4 0 40 0 C40 0.33 40 0.66 40 1 C33.73 1 27.46 1 21 1 C21.33 26.74 21.66 52.48 22 79 C47.74 79.33 73.48 79.66 100 80 C100 86.27 100 92.54 100 99 C106.27 99 112.54 99 119 99 C119 66.66 119 34.32 119 1 C112.73 1 106.46 1 100 1 C100 7.27 100 13.54 100 20 C99.67 20 99.34 20 99 20 C99 13.4 99 6.8 99 0 C105.93 0 112.86 0 120 0 C120 33 120 66 120 100 C113.4 100 106.8 100 100 100 C100 106.6 100 113.2 100 120 C99.67 120 99.34 120 99 120 C99 113.4 99 106.8 99 100 C92.73 100 86.46 100 80 100 C80 106.6 80 113.2 80 120 C79.67 120 79.34 120 79 120 C79 107.13 79 94.26 79 81 C74.973 81.084 70.946 81.168 66.797 81.254 C63.524 81.318 60.251 81.381 56.978 81.443 C53.558 81.508 50.137 81.575 46.716 81.648 C31.094 81.978 15.594 82.108 0 81 C0 80.67 0 80.34 0 80 C6.6 80 13.2 80 20 80 C20 53.93 20 27.86 20 1 C13.4 1 6.8 1 0 1 C0 0.67 0 0.34 0 0 Z " fill="#275386" transform="translate(179,417)"/>
<path d="M0 0 C13.2 0 26.4 0 40 0 C40 6.6 40 13.2 40 20 C26.8 20 13.6 20 0 20 C0 13.4 0 6.8 0 0 Z " fill="#010107" transform="translate(517,577)"/>
<path d="M0 0 C13.2 0 26.4 0 40 0 C40 6.6 40 13.2 40 20 C26.8 20 13.6 20 0 20 C0 13.4 0 6.8 0 0 Z " fill="#020209" transform="translate(179,577)"/>
<path d="M0 0 C6.6 0 13.2 0 20 0 C20 12.87 20 25.74 20 39 C13.4 39 6.8 39 0 39 C0 26.13 0 13.26 0 0 Z " fill="#020102" transform="translate(517,378)"/>
<path d="M0 0 C6.6 0 13.2 0 20 0 C20 12.87 20 25.74 20 39 C13.4 39 6.8 39 0 39 C0 26.13 0 13.26 0 0 Z " fill="#010001" transform="translate(199,378)"/>
<path d="M0 0 C12.87 0 25.74 0 39 0 C39 6.6 39 13.2 39 20 C26.13 20 13.26 20 0 20 C0 13.4 0 6.8 0 0 Z " fill="#010206" transform="translate(219,358)"/>
<path d="M0 0 C0.33 0 0.66 0 1 0 C1 6.6 1 13.2 1 20 C7.6 20 14.2 20 21 20 C21 33.2 21 46.4 21 60 C7.8 60 -5.4 60 -19 60 C-19 53.4 -19 46.8 -19 40 C-25.6 40 -32.2 40 -39 40 C-39 33.4 -39 26.8 -39 20 C-26.13 20 -13.26 20 0 20 C0 13.4 0 6.8 0 0 Z M-37 23 C-37.072 24.686 -37.084 26.375 -37.062 28.062 C-37.053 28.982 -37.044 29.901 -37.035 30.848 C-37.024 31.558 -37.012 32.268 -37 33 C-36.34 33 -35.68 33 -35 33 C-35.278 33.959 -35.278 33.959 -35.562 34.938 C-35.779 35.958 -35.779 35.958 -36 37 C-34.811 38.418 -34.811 38.418 -31.402 38.098 C-29.914 38.092 -28.426 38.079 -26.938 38.062 C-23.008 38.032 -23.008 38.032 -19 38 C-18.505 48.395 -18.505 48.395 -18 59 C-5.79 59 6.42 59 19 59 C19 53.39 19 47.78 19 42 C12.07 41.67 5.14 41.34 -2 41 C-2 34.73 -2 28.46 -2 22 C-6.824 21.977 -11.648 21.957 -16.471 21.945 C-18.114 21.94 -19.756 21.933 -21.398 21.925 C-23.754 21.912 -26.109 21.907 -28.465 21.902 C-29.203 21.897 -29.942 21.892 -30.703 21.887 C-34.14 21.574 -34.14 21.574 -37 23 Z " fill="#2FA5CA" transform="translate(417,159)"/>
<path d="M0 0 C13.2 0 26.4 0 40 0 C40 6.27 40 12.54 40 19 C26.8 19 13.6 19 0 19 C0 12.73 0 6.46 0 0 Z " fill="#00BFFD" transform="translate(418,239)"/>
<path d="M0 0 C6.27 0 12.54 0 19 0 C19 12.87 19 25.74 19 39 C12.73 39 6.46 39 0 39 C0 26.13 0 13.26 0 0 Z " fill="#020103" transform="translate(438,299)"/>
<path d="M0 0 C12.87 0 25.74 0 39 0 C39 6.27 39 12.54 39 19 C26.13 19 13.26 19 0 19 C0 12.73 0 6.46 0 0 Z " fill="#020103" transform="translate(418,259)"/>
<path d="M0 0 C6.27 0 12.54 0 19 0 C19 12.87 19 25.74 19 39 C12.73 39 6.46 39 0 39 C0 26.13 0 13.26 0 0 Z " fill="#0554F6" transform="translate(458,239)"/>
<path d="M0 0 C6.27 0 12.54 0 19 0 C19 12.87 19 25.74 19 39 C12.73 39 6.46 39 0 39 C0 26.13 0 13.26 0 0 Z " fill="#010204" transform="translate(279,219)"/>
<path d="M0 0 C4.948 -0.046 9.896 -0.086 14.844 -0.11 C16.528 -0.12 18.212 -0.134 19.896 -0.151 C22.313 -0.175 24.731 -0.186 27.148 -0.195 C27.904 -0.206 28.659 -0.216 29.437 -0.227 C31.293 -0.227 33.148 -0.122 35 0 C37 2 37 2 37.195 5.695 C37.182 7.172 37.158 8.649 37.125 10.125 C37.116 10.879 37.107 11.633 37.098 12.41 C37.074 14.274 37.038 16.137 37 18 C24.609 18.115 12.364 17.853 0 17 C0 11.39 0 5.78 0 0 Z " fill="#0254FA" transform="translate(419,280)"/>
<path d="M0 0 C6.6 0 13.2 0 20 0 C20 6.6 20 13.2 20 20 C13.4 20 6.8 20 0 20 C0 13.4 0 6.8 0 0 Z " fill="#020204" transform="translate(338,557)"/>
<path d="M0 0 C6.6 0 13.2 0 20 0 C20 6.6 20 13.2 20 20 C13.4 20 6.8 20 0 20 C0 13.4 0 6.8 0 0 Z " fill="#010408" transform="translate(378,557)"/>
<path d="M0 0 C6.6 0 13.2 0 20 0 C20 6.6 20 13.2 20 20 C13.4 20 6.8 20 0 20 C0 13.4 0 6.8 0 0 Z " fill="#02050D" transform="translate(358,537)"/>
<path d="M0 0 C6.6 0 13.2 0 20 0 C20 6.6 20 13.2 20 20 C13.4 20 6.8 20 0 20 C0 13.4 0 6.8 0 0 Z " fill="#020204" transform="translate(378,199)"/>
<path d="M0 0 C0.33 0 0.66 0 1 0 C1 12.87 1 25.74 1 39 C46.87 39 92.74 39 140 39 C140 33.06 140 27.12 140 21 C141 20 141 20 142.858 19.886 C143.648 19.892 144.439 19.897 145.254 19.902 C146.535 19.907 146.535 19.907 147.842 19.912 C149.189 19.925 149.189 19.925 150.562 19.938 C151.464 19.942 152.366 19.947 153.295 19.951 C155.53 19.963 157.765 19.979 160 20 C160 20.33 160 20.66 160 21 C154.39 21 148.78 21 143 21 C143.035 22.265 143.07 23.529 143.105 24.832 C143.134 26.492 143.161 28.152 143.188 29.812 C143.213 30.646 143.238 31.479 143.264 32.338 C143.278 33.542 143.278 33.542 143.293 34.77 C143.317 35.877 143.317 35.877 143.341 37.007 C142.89 39.641 142.1 40.371 140 42 C137.657 42.366 137.657 42.366 134.84 42.354 C133.238 42.358 133.238 42.358 131.604 42.362 C130.432 42.35 129.26 42.337 128.052 42.325 C126.818 42.324 125.583 42.322 124.312 42.321 C121.625 42.316 118.939 42.306 116.253 42.287 C111.999 42.256 107.745 42.245 103.492 42.238 C96.756 42.223 90.02 42.194 83.284 42.16 C71.243 42.098 59.202 42.06 47.161 42.028 C42.939 42.016 38.718 41.998 34.496 41.974 C31.239 41.957 27.981 41.946 24.724 41.934 C23.564 41.926 22.404 41.917 21.21 41.909 C16.355 41.896 11.699 41.981 6.892 42.692 C3 43 3 43 1.279 41.637 C-0.314 39.598 -0.365 38.553 -0.341 35.988 C-0.34 35.187 -0.34 34.386 -0.34 33.561 C-0.324 32.702 -0.309 31.843 -0.293 30.957 C-0.289 30.073 -0.284 29.19 -0.28 28.279 C-0.263 25.457 -0.226 22.635 -0.188 19.812 C-0.172 17.899 -0.159 15.986 -0.146 14.072 C-0.113 9.381 -0.062 4.691 0 0 Z " fill="#061442" transform="translate(417,577)"/>
<path d="M0 0 C0.33 0 0.66 0 1 0 C1 19.14 1 38.28 1 58 C67.825 57.505 67.825 57.505 136 57 C136 39.51 136 22.02 136 4 C136.33 4 136.66 4 137 4 C137.33 22.48 137.66 40.96 138 60 C92.46 60 46.92 60 0 60 C0 40.2 0 20.4 0 0 Z " fill="#13A9F9" transform="translate(299,418)"/>
<path d="M0 0 C6.27 0 12.54 0 19 0 C19 6.6 19 13.2 19 20 C12.73 20 6.46 20 0 20 C0 13.4 0 6.8 0 0 Z " fill="#010102" transform="translate(458,517)"/>
<path d="M0 0 C6.27 0 12.54 0 19 0 C19 6.6 19 13.2 19 20 C12.73 20 6.46 20 0 20 C0 13.4 0 6.8 0 0 Z " fill="#010102" transform="translate(259,517)"/>
<path d="M0 0 C6.27 0 12.54 0 19 0 C19 6.6 19 13.2 19 20 C12.73 20 6.46 20 0 20 C0 13.4 0 6.8 0 0 Z " fill="#010206" transform="translate(319,378)"/>
<path d="M0 0 C6.27 0 12.54 0 19 0 C19 6.6 19 13.2 19 20 C12.73 20 6.46 20 0 20 C0 13.4 0 6.8 0 0 Z " fill="#040306" transform="translate(438,378)"/>
<path d="M0 0 C6.27 0 12.54 0 19 0 C19 6.6 19 13.2 19 20 C12.73 20 6.46 20 0 20 C0 13.4 0 6.8 0 0 Z " fill="#0C54EC" transform="translate(319,358)"/>
<path d="M0 0 C6.27 0 12.54 0 19 0 C19 6.6 19 13.2 19 20 C12.73 20 6.46 20 0 20 C0 13.4 0 6.8 0 0 Z " fill="#F9CDA0" transform="translate(438,358)"/>
<path d="M0 0 C6.27 0 12.54 0 19 0 C19 6.6 19 13.2 19 20 C12.73 20 6.46 20 0 20 C0 13.4 0 6.8 0 0 Z " fill="#030203" transform="translate(299,199)"/>
<path d="M0 0 C6.27 0 12.54 0 19 0 C19 6.6 19 13.2 19 20 C12.73 20 6.46 20 0 20 C0 13.4 0 6.8 0 0 Z " fill="#020203" transform="translate(418,179)"/>
<path d="M0 0 C6.27 0 12.54 0 19 0 C19 6.27 19 12.54 19 19 C12.73 19 6.46 19 0 19 C0 12.73 0 6.46 0 0 Z " fill="#FCFCFB" transform="translate(458,498)"/>
<path d="M0 0 C6.27 0 12.54 0 19 0 C19 6.27 19 12.54 19 19 C12.73 19 6.46 19 0 19 C0 12.73 0 6.46 0 0 Z " fill="#FCFBFB" transform="translate(259,498)"/>
<path d="M0 0 C0.33 0 0.66 0 1 0 C1 6.6 1 13.2 1 20 C13.87 20 26.74 20 40 20 C40 20.33 40 20.66 40 21 C27.46 21 14.92 21 2 21 C2.04 27.537 2.04 27.537 2.09 34.074 C2.093 34.884 2.095 35.693 2.098 36.527 C2.106 37.776 2.106 37.776 2.114 39.051 C2 41 2 41 1 42 C-0.416 42.087 -1.836 42.107 -3.254 42.098 C-4.108 42.094 -4.962 42.091 -5.842 42.088 C-6.74 42.08 -7.637 42.071 -8.562 42.062 C-9.464 42.058 -10.366 42.053 -11.295 42.049 C-13.53 42.037 -15.765 42.021 -18 42 C-17.928 42.904 -17.856 43.807 -17.781 44.738 C-17.642 46.508 -17.642 46.508 -17.5 48.312 C-17.407 49.484 -17.314 50.656 -17.219 51.863 C-17.076 53.905 -17 55.953 -17 58 C-14.541 58.054 -12.084 58.094 -9.625 58.125 C-8.926 58.142 -8.228 58.159 -7.508 58.176 C-5.671 58.193 -3.834 58.103 -2 58 C-1.34 57.34 -0.68 56.68 0 56 C0 56.66 0 57.32 0 58 C1.485 58.495 1.485 58.495 3 59 C2.67 71.54 2.34 84.08 2 97 C7.28 97 12.56 97 18 97 C18.33 91.39 18.66 85.78 19 80 C19.33 80 19.66 80 20 80 C20 86.27 20 92.54 20 99 C13.4 99 6.8 99 0 99 C0 86.13 0 73.26 0 60 C-6.6 60 -13.2 60 -20 60 C-20 53.4 -20 46.8 -20 40 C-13.4 40 -6.8 40 0 40 C0 26.8 0 13.6 0 0 Z " fill="#17AEF4" transform="translate(258,338)"/>
<path d="M0 0 C0.33 0 0.66 0 1 0 C1 19.47 1 38.94 1 59 C7.6 59 14.2 59 21 59 C21 65.6 21 72.2 21 79 C20.67 79 20.34 79 20 79 C20 72.73 20 66.46 20 60 C13.73 60 7.46 60 1 60 C1 92.34 1 124.68 1 158 C6.94 158 12.88 158 19 158 C19 158.33 19 158.66 19 159 C12.73 159 6.46 159 0 159 C0 126.33 0 93.66 0 60 C-32.67 60 -65.34 60 -99 60 C-99 59.67 -99 59.34 -99 59 C-66.33 59 -33.66 59 0 59 C0 39.53 0 20.06 0 0 Z " fill="#1F5C79" transform="translate(437,358)"/>
<path d="M0 0 C0.33 0 0.66 0 1 0 C1 5.61 1 11.22 1 17 C46.87 17 92.74 17 140 17 C139.67 18.32 139.34 19.64 139 21 C137.778 20.837 136.556 20.673 135.296 20.505 C129.282 19.842 123.305 19.883 117.26 19.918 C116.013 19.921 114.767 19.924 113.483 19.928 C110.79 19.935 108.097 19.944 105.404 19.955 C101.148 19.974 96.892 19.983 92.635 19.991 C80.538 20.015 68.441 20.052 56.344 20.096 C49.649 20.12 42.954 20.138 36.258 20.148 C32.025 20.154 27.791 20.17 23.558 20.192 C20.317 20.206 17.075 20.208 13.834 20.211 C12.659 20.22 11.483 20.229 10.272 20.238 C9.205 20.236 8.138 20.235 7.039 20.234 C6.109 20.237 5.179 20.24 4.22 20.243 C2 20 2 20 0 18 C-0.227 16.121 -0.227 16.121 -0.195 13.867 C-0.189 13.062 -0.182 12.256 -0.176 11.426 C-0.151 10.163 -0.151 10.163 -0.125 8.875 C-0.116 8.026 -0.107 7.176 -0.098 6.301 C-0.074 4.2 -0.038 2.1 0 0 Z " fill="#051040" transform="translate(178,599)"/>
<path d="M0 0 C0.33 0 0.66 0 1 0 C1 11.22 1 22.44 1 34 C45.88 34 90.76 34 137 34 C136.67 29.05 136.34 24.1 136 19 C123.79 18.67 111.58 18.34 99 18 C99 17.34 99 16.68 99 16 C112.53 16 126.06 16 140 16 C139.67 22.27 139.34 28.54 139 35 C93.13 35 47.26 35 0 35 C0 23.45 0 11.9 0 0 Z " fill="#1655D2" transform="translate(418,581)"/>
<path d="M0 0 C19.47 0 38.94 0 59 0 C59 6.27 59 12.54 59 19 C58.67 19 58.34 19 58 19 C57.505 10.09 57.505 10.09 57 1 C54.466 1.072 51.931 1.144 49.32 1.219 C46.798 1.289 44.276 1.358 41.753 1.427 C40.033 1.475 38.313 1.523 36.593 1.573 C24.725 1.913 12.873 2.065 1 2 C1.077 3.295 1.154 4.59 1.233 5.925 C1.842 16.3 2.129 26.606 2 37 C3.204 37.061 4.408 37.121 5.648 37.184 C7.224 37.268 8.799 37.353 10.375 37.438 C11.566 37.496 11.566 37.496 12.781 37.557 C18.773 37.887 18.773 37.887 21 39 C21.33 45.27 21.66 51.54 22 58 C33.88 58.33 45.76 58.66 58 59 C58 52.73 58 46.46 58 40 C58.33 40 58.66 40 59 40 C59 46.6 59 53.2 59 60 C46.13 60 33.26 60 20 60 C20 53.4 20 46.8 20 40 C13.07 40 6.14 40 -1 40 C-1.021 37.112 -1.041 34.225 -1.062 31.25 C-1.072 30.388 -1.081 29.526 -1.09 28.638 C-1.122 19.043 -0.482 9.636 0 0 Z " fill="#21AEEE" transform="translate(279,517)"/>
<path d="M0 0 C6.6 0 13.2 0 20 0 C20 0.33 20 0.66 20 1 C14.06 1 8.12 1 2 1 C2 13.87 2 26.74 2 40 C2.99 40.495 2.99 40.495 4 41 C-0.627 45.627 -10.868 44.058 -17.078 44.098 C-19.469 44.091 -21.859 44.079 -24.25 44.062 C-26.1 44.056 -26.1 44.056 -27.988 44.049 C-30.992 44.037 -33.996 44.019 -37 44 C-37 49.28 -37 54.56 -37 60 C-37.66 60 -38.32 60 -39 60 C-39 53.4 -39 46.8 -39 40 C-26.13 40 -13.26 40 0 40 C0 26.8 0 13.6 0 0 Z " fill="#124CCA" transform="translate(258,537)"/>
<path d="M0 0 C2.646 -0.027 5.292 -0.047 7.938 -0.062 C8.692 -0.071 9.447 -0.079 10.225 -0.088 C12.15 -0.097 14.075 -0.052 16 0 C17.756 1.756 17.132 4.036 17.137 6.371 C17.133 7.074 17.129 7.776 17.125 8.5 C17.131 9.554 17.131 9.554 17.137 10.629 C17.127 15.873 17.127 15.873 16 17 C13.47 17.073 10.967 17.092 8.438 17.062 C7.727 17.058 7.016 17.053 6.283 17.049 C4.522 17.037 2.761 17.019 1 17 C-0.187 13.44 -0.097 10.562 -0.062 6.812 C-0.053 5.54 -0.044 4.268 -0.035 2.957 C-0.024 1.981 -0.012 1.005 0 0 Z " fill="#FCC9A0" transform="translate(340,280)"/>
<path d="M0 0 C26.07 0 52.14 0 79 0 C79 0.33 79 0.66 79 1 C59.53 1 40.06 1 20 1 C20 7.6 20 14.2 20 21 C7.13 21 -5.74 21 -19 21 C-19 40.47 -19 59.94 -19 80 C-19.33 80 -19.66 80 -20 80 C-20 60.2 -20 40.4 -20 20 C-13.4 20 -6.8 20 0 20 C0 13.4 0 6.8 0 0 Z M2 2 C1.973 4.271 1.954 6.542 1.938 8.812 C1.926 10.077 1.914 11.342 1.902 12.645 C1.838 15.996 1.838 15.996 3 19 C5.479 19.027 7.958 19.047 10.438 19.062 C11.498 19.075 11.498 19.075 12.58 19.088 C14.387 19.097 16.194 19.052 18 19 C19.756 17.244 19.132 14.964 19.137 12.629 C19.131 11.575 19.131 11.575 19.125 10.5 C19.129 9.797 19.133 9.095 19.137 8.371 C19.444 4.896 19.444 4.896 18 2 C15.303 1.927 12.633 1.908 9.938 1.938 C8.8 1.944 8.8 1.944 7.639 1.951 C5.759 1.963 3.88 1.981 2 2 Z " fill="#A9AFCA" transform="translate(338,278)"/>
<path d="M0 0 C12.87 0 25.74 0 39 0 C39 6.27 39 12.54 39 19 C32.4 19 25.8 19 19 19 C19 31.87 19 44.74 19 58 C12.4 58 5.8 58 -1 58 C-1 51.73 -1 45.46 -1 39 C-0.67 39 -0.34 39 0 39 C0.33 44.61 0.66 50.22 1 56 C5.95 56 10.9 56 16 56 C15.992 54.334 15.992 54.334 15.984 52.635 C15.966 48.524 15.955 44.413 15.945 40.302 C15.94 38.521 15.933 36.74 15.925 34.959 C15.912 32.402 15.907 29.846 15.902 27.289 C15.897 26.49 15.892 25.691 15.887 24.868 C15.886 19.228 15.886 19.228 17 17 C23.6 17.33 30.2 17.66 37 18 C37 12.39 37 6.78 37 1 C24.79 1 12.58 1 0 1 C0 0.67 0 0.34 0 0 Z " fill="#11B1F4" transform="translate(459,379)"/>
<path d="M0 0 C0.33 0 0.66 0 1 0 C1 12.87 1 25.74 1 39 C0.34 38.67 -0.32 38.34 -1 38 C-1 32.39 -1 26.78 -1 21 C-8.654 20.951 -16.308 20.914 -23.961 20.89 C-26.567 20.88 -29.172 20.866 -31.778 20.849 C-35.516 20.825 -39.254 20.814 -42.992 20.805 C-44.163 20.794 -45.334 20.784 -46.54 20.773 C-47.621 20.773 -48.702 20.773 -49.816 20.773 C-50.771 20.769 -51.726 20.764 -52.709 20.759 C-55.197 20.778 -55.197 20.778 -57 23 C-57.119 25.721 -57.14 28.347 -57.062 31.062 C-57.001 33.713 -56.979 36.348 -57 39 C-58.514 40.514 -59.925 40.213 -62.035 40.316 C-62.844 40.358 -63.653 40.4 -64.486 40.443 C-65.336 40.483 -66.187 40.522 -67.062 40.562 C-67.917 40.606 -68.771 40.649 -69.65 40.693 C-71.767 40.8 -73.883 40.9 -76 41 C-76.33 45.95 -76.66 50.9 -77 56 C-71.39 56.33 -65.78 56.66 -60 57 C-59.67 57.66 -59.34 58.32 -59 59 C-65.6 59 -72.2 59 -79 59 C-79 52.4 -79 45.8 -79 39 C-72.4 39 -65.8 39 -59 39 C-59 32.4 -59 25.8 -59 19 C-39.53 19 -20.06 19 0 19 C0 12.73 0 6.46 0 0 Z " fill="#1CAEEE" transform="translate(457,498)"/>
<path d="M0 0 C0.33 0.99 0.66 1.98 1 3 C10.9 2.505 10.9 2.505 21 2 C21.054 5.917 21.094 9.833 21.125 13.75 C21.142 14.861 21.159 15.972 21.176 17.117 C21.185 18.722 21.185 18.722 21.195 20.359 C21.211 21.836 21.211 21.836 21.227 23.343 C20.995 26.06 20.39 27.681 19 30 C18.505 28.515 18.505 28.515 18 27 C12.39 27 6.78 27 1 27 C1 39.21 1 51.42 1 64 C19.48 64 37.96 64 57 64 C57 64.33 57 64.66 57 65 C38.19 65 19.38 65 0 65 C0 52.13 0 39.26 0 26 C6.27 26 12.54 26 19 26 C19 19.4 19 12.8 19 6 C6.13 6 -6.74 6 -20 6 C-20 5.67 -20 5.34 -20 5 C-13.4 5 -6.8 5 0 5 C0 3.35 0 1.7 0 0 Z " fill="#134FC2" transform="translate(478,432)"/>
<path d="M0 0 C6.27 0 12.54 0 19 0 C20.148 41.084 20.148 41.084 20 59 C13.07 59 6.14 59 -1 59 C-1 52.73 -1 46.46 -1 40 C1.846 42.846 1.455 45.808 1.625 49.625 C1.749 52.059 1.873 54.493 2 57 C7.28 57 12.56 57 18 57 C17.67 56.34 17.34 55.68 17 55 C16.881 53.336 16.823 51.668 16.795 50 C16.775 48.959 16.755 47.918 16.734 46.845 C16.718 45.718 16.701 44.591 16.684 43.43 C16.663 42.278 16.642 41.127 16.621 39.941 C16.555 36.252 16.496 32.564 16.438 28.875 C16.394 26.379 16.351 23.883 16.307 21.387 C16.199 15.258 16.098 9.129 16 3 C10.72 3 5.44 3 0 3 C0 2.01 0 1.02 0 0 Z " fill="#F2D2B2" transform="translate(418,299)"/>
<path d="M0 0 C6.6 0 13.2 0 20 0 C20 13.2 20 26.4 20 40 C32.87 40 45.74 40 59 40 C59 46.6 59 53.2 59 60 C58.67 60 58.34 60 58 60 C57.67 54.39 57.34 48.78 57 43 C54.196 42.939 51.393 42.879 48.504 42.816 C45.8 42.755 43.096 42.691 40.392 42.628 C38.508 42.584 36.623 42.543 34.738 42.503 C32.035 42.445 29.332 42.381 26.629 42.316 C25.781 42.3 24.933 42.283 24.059 42.266 C18.114 42.114 18.114 42.114 17 41 C16.84 38.117 16.74 35.256 16.684 32.371 C16.663 31.507 16.642 30.643 16.621 29.752 C16.555 26.981 16.496 24.209 16.438 21.438 C16.394 19.563 16.351 17.689 16.307 15.814 C16.199 11.21 16.098 6.605 16 2 C10.72 2 5.44 2 0 2 C0 1.34 0 0.68 0 0 Z " fill="#124ACE" transform="translate(458,537)"/>
<path d="M0 0 C2.573 -0.287 4.905 -0.379 7.479 -0.341 C8.635 -0.341 8.635 -0.341 9.815 -0.342 C12.369 -0.34 14.923 -0.316 17.477 -0.293 C19.245 -0.287 21.013 -0.283 22.782 -0.28 C27.441 -0.269 32.1 -0.239 36.759 -0.206 C41.511 -0.175 46.263 -0.162 51.016 -0.146 C60.344 -0.114 69.672 -0.063 79 0 C79 0.99 79 1.98 79 3 C52.27 3 25.54 3 -2 3 C-1.34 2.01 -0.68 1.02 0 0 Z " fill="#FEC89D" transform="translate(353,392)"/>
<path d="M0 0 C0.33 0 0.66 0 1 0 C1 32.67 1 65.34 1 99 C6.94 99 12.88 99 19 99 C19 99.33 19 99.66 19 100 C13.06 100 7.12 100 1 100 C1 106.27 1 112.54 1 119 C0.67 119 0.34 119 0 119 C0 112.73 0 106.46 0 100 C-6.6 100 -13.2 100 -20 100 C-20 79.87 -20 59.74 -20 39 C-13.4 39 -6.8 39 0 39 C0 26.13 0 13.26 0 0 Z M-19 40 C-19 59.47 -19 78.94 -19 99 C-12.73 99 -6.46 99 0 99 C0 79.53 0 60.06 0 40 C-6.27 40 -12.54 40 -19 40 Z " fill="#57737D" transform="translate(278,219)"/>
<path d="M0 0 C13.2 0 26.4 0 40 0 C40 6.27 40 12.54 40 19 C26.8 19 13.6 19 0 19 C0 12.73 0 6.46 0 0 Z M4 3 C3.927 5.186 3.916 7.375 3.938 9.562 C3.947 10.76 3.956 11.958 3.965 13.191 C3.976 14.118 3.988 15.045 4 16 C7.52 18.172 10.354 18.245 14.445 18.23 C15.687 18.229 16.928 18.227 18.207 18.225 C19.5 18.212 20.793 18.2 22.125 18.188 C24.076 18.187 24.076 18.187 26.066 18.186 C32.216 18.494 32.216 18.494 38 17 C38 12.05 38 7.1 38 2 C33.319 1.977 28.637 1.957 23.956 1.945 C22.362 1.94 20.768 1.933 19.175 1.925 C16.888 1.912 14.602 1.907 12.316 1.902 C11.6 1.897 10.883 1.892 10.145 1.887 C6.788 1.588 6.788 1.588 4 3 Z " fill="#18B8F5" transform="translate(418,239)"/>
<path d="M0 0 C1.645 0 3.29 0.006 4.935 0.016 C6.232 0.018 6.232 0.018 7.554 0.02 C10.326 0.026 13.097 0.038 15.869 0.051 C17.743 0.056 19.618 0.061 21.492 0.065 C26.097 0.076 30.702 0.093 35.306 0.114 C35.306 0.444 35.306 0.774 35.306 1.114 C22.622 1.971 10.018 2.233 -2.694 2.114 C-2.694 7.724 -2.694 13.334 -2.694 19.114 C3.906 19.114 10.506 19.114 17.306 19.114 C17.306 32.644 17.306 46.174 17.306 60.114 C16.646 60.114 15.986 60.114 15.306 60.114 C15.306 47.244 15.306 34.374 15.306 21.114 C9.036 21.114 2.766 21.114 -3.694 21.114 C-5.25 19.557 -4.823 18.054 -4.826 15.895 C-4.828 15.045 -4.829 14.196 -4.83 13.321 C-4.826 12.427 -4.823 11.534 -4.819 10.614 C-4.822 9.72 -4.826 8.827 -4.83 7.906 C-4.829 7.057 -4.828 6.208 -4.826 5.332 C-4.825 4.548 -4.824 3.763 -4.823 2.955 C-4.58 -0.508 -3.605 0.111 0 0 Z " fill="#041C4F" transform="translate(242.693603515625,436.886474609375)"/>
<path d="M0 0 C0.33 0 0.66 0 1 0 C1.33 2.64 1.66 5.28 2 8 C21.305 8.495 21.305 8.495 41 9 C41 15.6 41 22.2 41 29 C34.73 29 28.46 29 22 29 C22 41.87 22 54.74 22 68 C21.34 68 20.68 68 20 68 C20 54.8 20 41.6 20 28 C22.297 26.852 23.583 26.884 26.133 26.902 C26.938 26.906 27.744 26.909 28.574 26.912 C29.416 26.92 30.258 26.929 31.125 26.938 C31.974 26.942 32.824 26.947 33.699 26.951 C35.8 26.963 37.9 26.981 40 27 C40 21.39 40 15.78 40 10 C37.298 10.165 34.596 10.33 31.812 10.5 C21.206 11.101 10.62 11.095 0 11 C-1.627 7.747 -1.115 4.608 -1 1 C-0.67 0.67 -0.34 0.34 0 0 Z " fill="#041044" transform="translate(456,429)"/>
<path d="M0 0 C0.33 0 0.66 0 1 0 C1 12.21 1 24.42 1 37 C7.6 37 14.2 37 21 37 C21.894 50.813 21.901 64.194 21 78 C20.34 78 19.68 78 19 78 C17.717 74.15 17.934 71.053 18 67 C18.66 67 19.32 67 20 67 C19.67 58.09 19.34 49.18 19 40 C12.4 40 5.8 40 -1 40 C-1.023 34.946 -1.043 29.893 -1.055 24.839 C-1.06 23.12 -1.067 21.401 -1.075 19.683 C-1.088 17.21 -1.093 14.738 -1.098 12.266 C-1.103 11.499 -1.108 10.732 -1.113 9.942 C-1.114 6.452 -0.938 3.357 0 0 Z M17 78 C19 79 19 79 19 79 Z " fill="#F0D0AE" transform="translate(337,301)"/>
<path d="M0 0 C0.33 0 0.66 0 1 0 C1 7.59 1 15.18 1 23 C-4.61 23 -10.22 23 -16 23 C-16.021 24.897 -16.021 24.897 -16.043 26.832 C-16.09 28.492 -16.138 30.152 -16.188 31.812 C-16.193 32.646 -16.199 33.479 -16.205 34.338 C-16.426 40.455 -16.426 40.455 -19.172 43.062 C-22.327 44.108 -24.745 44.301 -28.062 44.188 C-29.085 44.16 -30.107 44.133 -31.16 44.105 C-32.097 44.071 -33.034 44.036 -34 44 C-35.32 44 -36.64 44 -38 44 C-38.33 42.68 -38.66 41.36 -39 40 C-32.73 40 -26.46 40 -20 40 C-20 33.4 -20 26.8 -20 20 C-13.4 20 -6.8 20 0 20 C0 13.4 0 6.8 0 0 Z " fill="#0170F2" transform="translate(457,537)"/>
<path d="M0 0 C1.98 0 3.96 0 6 0 C5.835 0.598 5.67 1.196 5.5 1.812 C4.889 4.113 4.889 4.113 5 7 C4.34 7.66 3.68 8.32 3 9 C2.667 11.954 2.667 11.954 2.681 15.469 C2.671 16.133 2.661 16.796 2.651 17.48 C2.62 19.677 2.603 21.873 2.586 24.07 C2.567 25.592 2.548 27.114 2.527 28.635 C2.476 32.643 2.436 36.651 2.399 40.66 C2.359 44.748 2.308 48.837 2.258 52.926 C2.161 60.95 2.077 68.975 2 77 C2.66 77 3.32 77 4 77 C4 77.66 4 78.32 4 79 C2.68 79 1.36 79 0 79 C0 52.93 0 26.86 0 0 Z " fill="#00042C" transform="translate(537,418)"/>
<path d="M0 0 C6.6 0 13.2 0 20 0 C20 6.6 20 13.2 20 20 C13.4 20 6.8 20 0 20 C0 13.4 0 6.8 0 0 Z M2 1 C1.979 3.619 1.959 6.239 1.938 8.938 C1.928 9.764 1.919 10.59 1.91 11.441 C1.903 13.294 1.95 15.147 2 17 C3.008 18.233 3.008 18.233 5.066 18.098 C5.89 18.086 6.714 18.074 7.562 18.062 C8.802 18.049 8.802 18.049 10.066 18.035 C10.704 18.024 11.343 18.012 12 18 C12.124 17.216 12.248 16.433 12.375 15.625 C13 13 13 13 15 11 C13.515 8.03 13.515 8.03 12 5 C12.99 5 13.98 5 15 5 C15.33 5.99 15.66 6.98 16 8 C16.99 7.67 17.98 7.34 19 7 C19 5.02 19 3.04 19 1 C13.39 1 7.78 1 2 1 Z " fill="#010823" transform="translate(378,199)"/>
<path d="M0 0 C42.57 0.495 42.57 0.495 86 1 C86.495 1.99 86.495 1.99 87 3 C57.96 3 28.92 3 -1 3 C-0.67 2.01 -0.34 1.02 0 0 Z " fill="#FCCA94" transform="translate(346,394)"/>
<path d="M0 0 C13.2 0 26.4 0 40 0 C40 19.47 40 38.94 40 59 C39.67 59 39.34 59 39 59 C39 46.13 39 33.26 39 20 C32.73 20 26.46 20 20 20 C20 19.67 20 19.34 20 19 C25.94 19 31.88 19 38 19 C37.856 16.381 37.711 13.761 37.562 11.062 C37.519 10.236 37.476 9.41 37.432 8.559 C37.538 4.98 37.538 4.98 36 2 C33.408 1.84 30.84 1.741 28.246 1.684 C27.471 1.663 26.695 1.642 25.896 1.621 C23.41 1.555 20.924 1.496 18.438 1.438 C16.756 1.394 15.074 1.351 13.393 1.307 C9.262 1.199 5.131 1.1 1 1 C1 6.61 1 12.22 1 18 C6.61 18 12.22 18 18 18 C18 18.33 18 18.66 18 19 C12.06 19 6.12 19 0 19 C0 12.73 0 6.46 0 0 Z " fill="#3961B7" transform="translate(418,279)"/>
<path d="M0 0 C6.27 0 12.54 0 19 0 C19 12.87 19 25.74 19 39 C18.34 39 17.68 39 17 39 C17 26.79 17 14.58 17 2 C12.05 2.33 7.1 2.66 2 3 C1.67 21.48 1.34 39.96 1 59 C0.67 59 0.34 59 0 59 C0 39.53 0 20.06 0 0 Z " fill="#060C1B" transform="translate(398,577)"/>
<path d="M0 0 C6.6 0 13.2 0 20 0 C20 12.87 20 25.74 20 39 C13.4 39 6.8 39 0 39 C0 27.45 0 15.9 0 4 C0.33 4 0.66 4 1 4 C1 14.89 1 25.78 1 37 C6.61 37 12.22 37 18 37 C17.67 25.12 17.34 13.24 17 1 C11.39 1 5.78 1 0 1 C0 0.67 0 0.34 0 0 Z " fill="#040720" transform="translate(199,378)"/>
<path d="M0 0 C6.27 0 12.54 0 19 0 C19 32.34 19 64.68 19 98 C12.73 98 6.46 98 0 98 C0 97.34 0 96.68 0 96 C5.667 96 11.333 96 17 96 C17.33 64.65 17.66 33.3 18 1 C12.39 1 6.78 1 1 1 C1 7.27 1 13.54 1 20 C0.34 19.67 -0.32 19.34 -1 19 C-0.67 12.73 -0.34 6.46 0 0 Z " fill="#000815" transform="translate(279,418)"/>
<path d="M0 0 C6.27 0 12.54 0 19 0 C18.01 1.32 17.02 2.64 16 4 C15.01 4 14.02 4 13 4 C13 3.34 13 2.68 13 2 C9.7 2.33 6.4 2.66 3 3 C3 15.21 3 27.42 3 40 C2.01 40 1.02 40 0 40 C0 26.8 0 13.6 0 0 Z " fill="#0A54EC" transform="translate(219,378)"/>
<path d="M0 0 C6.27 0 12.54 0 19 0 C19 2.97 19 5.94 19 9 C18.34 9 17.68 9 17 9 C17 6.36 17 3.72 17 1 C11.72 1 6.44 1 1 1 C1.33 32.35 1.66 63.7 2 96 C13.472 96.685 13.472 96.685 18 95 C18.33 96.32 18.66 97.64 19 99 C12.73 98.67 6.46 98.34 0 98 C0 65.66 0 33.32 0 0 Z " fill="#000815" transform="translate(438,418)"/>
<path d="M0 0 C0.33 0 0.66 0 1 0 C1 6.27 1 12.54 1 19 C7.6 19 14.2 19 21 19 C21 32.2 21 45.4 21 59 C20.67 59 20.34 59 20 59 C20 46.13 20 33.26 20 20 C13.73 20 7.46 20 1 20 C1 32.87 1 45.74 1 59 C0.67 59 0.34 59 0 59 C0 46.13 0 33.26 0 20 C-12.87 20 -25.74 20 -39 20 C-39 19.67 -39 19.34 -39 19 C-26.13 19 -13.26 19 0 19 C0 12.73 0 6.46 0 0 Z " fill="#817D81" transform="translate(417,279)"/>
<path d="M0 0 C0.99 0.495 0.99 0.495 2 1 C2 6.94 2 12.88 2 19 C14.54 18.34 27.08 17.68 40 17 C40 17.66 40 18.32 40 19 C41.011 18.754 41.011 18.754 42.043 18.504 C47.641 17.55 53.338 17.947 59 18 C59 12.72 59 7.44 59 2 C59.33 2 59.66 2 60 2 C60 7.94 60 13.88 60 20 C40.2 20 20.4 20 0 20 C0 13.4 0 6.8 0 0 Z " fill="#0067E6" transform="translate(338,517)"/>
<path d="M0 0 C6.6 0 13.2 0 20 0 C20 0.66 20 1.32 20 2 C14.72 2 9.44 2 4 2 C4 6.95 4 11.9 4 17 C9.28 17 14.56 17 20 17 C20 17.66 20 18.32 20 19 C13.4 19 6.8 19 0 19 C0 12.73 0 6.46 0 0 Z " fill="#17B9EB" transform="translate(438,398)"/>
<path d="M0 0 C6.6 0 13.2 0 20 0 C20 0.33 20 0.66 20 1 C14.39 1.66 8.78 2.32 3 3 C2.67 14.22 2.34 25.44 2 37 C7.94 37 13.88 37 20 37 C20 37.66 20 38.32 20 39 C13.4 39 6.8 39 0 39 C0 26.13 0 13.26 0 0 Z " fill="#FEFAEA" transform="translate(338,299)"/>
<path d="M0 0 C0.33 0 0.66 0 1 0 C1 6.6 1 13.2 1 20 C13.87 20 26.74 20 40 20 C40 20.33 40 20.66 40 21 C27.46 21 14.92 21 2 21 C2.04 27.537 2.04 27.537 2.09 34.074 C2.093 34.884 2.095 35.693 2.098 36.527 C2.106 37.776 2.106 37.776 2.114 39.051 C2 41 2 41 1 42 C-2.138 42.25 -5.29 42.185 -8.438 42.188 C-9.322 42.2 -10.207 42.212 -11.119 42.225 C-11.965 42.227 -12.812 42.228 -13.684 42.23 C-14.463 42.235 -15.242 42.239 -16.045 42.243 C-18 42 -18 42 -20 40 C-13.4 40 -6.8 40 0 40 C0 26.8 0 13.6 0 0 Z " fill="#2D9FC2" transform="translate(258,338)"/>
<path d="M0 0 C0.33 0 0.66 0 1 0 C1 13.2 1 26.4 1 40 C-12.2 40 -25.4 40 -39 40 C-39 33.4 -39 26.8 -39 20 C-38.67 20 -38.34 20 -38 20 C-38 26.27 -38 32.54 -38 39 C-25.79 39 -13.58 39 -1 39 C-1 33.39 -1 27.78 -1 22 C-6.61 21.67 -12.22 21.34 -18 21 C-18 20.67 -18 20.34 -18 20 C-12.06 20 -6.12 20 0 20 C0 13.4 0 6.8 0 0 Z " fill="#3B9ABC" transform="translate(437,179)"/>
<path d="M0 0 C0.33 0 0.66 0 1 0 C1 4.29 1 8.58 1 13 C-5.6 13 -12.2 13 -19 13 C-19 19.6 -19 26.2 -19 33 C-31.87 33 -44.74 33 -58 33 C-58 26.4 -58 19.8 -58 13 C-57.67 13 -57.34 13 -57 13 C-57 19.27 -57 25.54 -57 32 C-44.79 32 -32.58 32 -20 32 C-20.04 25.463 -20.04 25.463 -20.09 18.926 C-20.093 18.116 -20.095 17.307 -20.098 16.473 C-20.103 15.64 -20.108 14.807 -20.114 13.949 C-20 12 -20 12 -19 11 C-17.587 10.844 -16.166 10.749 -14.746 10.684 C-13.465 10.621 -13.465 10.621 -12.158 10.557 C-11.26 10.517 -10.363 10.478 -9.438 10.438 C-8.536 10.394 -7.634 10.351 -6.705 10.307 C-4.47 10.2 -2.235 10.1 0 10 C0 6.7 0 3.4 0 0 Z " fill="#1DADF0" transform="translate(456,544)"/>
<path d="M0 0 C0.33 0 0.66 0 1 0 C1 11.88 1 23.76 1 36 C-11.54 36 -24.08 36 -37 36 C-37.33 42.27 -37.66 48.54 -38 55 C-38.33 55 -38.66 55 -39 55 C-39.054 52.062 -39.094 49.125 -39.125 46.188 C-39.142 45.354 -39.159 44.521 -39.176 43.662 C-39.182 42.86 -39.189 42.057 -39.195 41.23 C-39.206 40.492 -39.216 39.754 -39.227 38.993 C-39 37 -39 37 -37 34 C-34.234 33.733 -31.694 33.652 -28.93 33.707 C-27.735 33.713 -27.735 33.713 -26.517 33.72 C-23.969 33.737 -21.422 33.774 -18.875 33.812 C-17.15 33.828 -15.424 33.841 -13.699 33.854 C-9.466 33.884 -5.234 33.943 -1 34 C-0.67 22.78 -0.34 11.56 0 0 Z " fill="#0155F1" transform="translate(435,480)"/>
<path d="M0 0 C0.33 0 0.66 0 1 0 C1.33 2.64 1.66 5.28 2 8 C2.99 7.34 3.98 6.68 5 6 C5.33 6.66 5.66 7.32 6 8 C5.67 8.66 5.34 9.32 5 10 C6.32 9.01 7.64 8.02 9 7 C9 13.27 9 19.54 9 26 C8.34 26 7.68 26 7 26 C5 23 5 23 5 19 C3.35 20.32 1.7 21.64 0 23 C0 15.41 0 7.82 0 0 Z " fill="#FBCBA0" transform="translate(339,358)"/>
<path d="M0 0 C6.93 0 13.86 0 21 0 C21 6.6 21 13.2 21 20 C27.27 20 33.54 20 40 20 C39.67 21.32 39.34 22.64 39 24 C38.01 23.67 37.02 23.34 36 23 C29.914 22.767 29.914 22.767 24 24 C24 23.34 24 22.68 24 22 C22.68 22.33 21.36 22.66 20 23 C18.852 20.703 18.884 19.417 18.902 16.867 C18.906 16.062 18.909 15.256 18.912 14.426 C18.92 13.584 18.929 12.742 18.938 11.875 C18.942 11.026 18.947 10.176 18.951 9.301 C18.963 7.2 18.981 5.1 19 3 C11.575 2.01 11.575 2.01 4 1 C4 1.66 4 2.32 4 3 C2.68 2.67 1.36 2.34 0 2 C0 1.34 0 0.68 0 0 Z " fill="#005FED" transform="translate(278,557)"/>
<path d="M0 0 C1.98 0 3.96 0 6 0 C4.68 1.65 3.36 3.3 2 5 C1.67 9.29 1.34 13.58 1 18 C12.55 18 24.1 18 36 18 C36 17.34 36 16.68 36 16 C36.66 16 37.32 16 38 16 C38 11.05 38 6.1 38 1 C28.1 1 18.2 1 8 1 C8 0.67 8 0.34 8 0 C18.23 0 28.46 0 39 0 C39 6.27 39 12.54 39 19 C26.13 19 13.26 19 0 19 C0 12.73 0 6.46 0 0 Z " fill="#00041F" transform="translate(418,259)"/>
<path d="M0 0 C0.33 0 0.66 0 1 0 C1 18.81 1 37.62 1 57 C-0.65 57 -2.3 57 -4 57 C-4 55.68 -4 54.36 -4 53 C-3.01 52.505 -3.01 52.505 -2 52 C-1.99 51.422 -1.979 50.845 -1.969 50.249 C-1.86 44.231 -1.746 38.212 -1.628 32.194 C-1.584 29.949 -1.543 27.703 -1.503 25.458 C-1.445 22.228 -1.381 18.999 -1.316 15.77 C-1.3 14.767 -1.283 13.765 -1.266 12.732 C-1.246 11.792 -1.226 10.851 -1.205 9.882 C-1.19 9.058 -1.174 8.234 -1.158 7.386 C-0.99 4.854 -0.549 2.475 0 0 Z " fill="#0755F3" transform="translate(316,300)"/>
<path d="M0 0 C6.93 0 13.86 0 21 0 C21 6.6 21 13.2 21 20 C27.27 20 33.54 20 40 20 C40 26.6 40 33.2 40 40 C39.34 40 38.68 40 38 40 C38 34.06 38 28.12 38 22 C32.06 22 26.12 22 20 22 C18.953 17.811 18.889 14.021 18.938 9.75 C18.958 7.192 18.979 4.635 19 2 C13.06 2 7.12 2 1 2 C0.67 1.34 0.34 0.68 0 0 Z " fill="#27A3CA" transform="translate(298,378)"/>
<path d="M0 0 C0.66 0 1.32 0 2 0 C1.995 1.045 1.99 2.089 1.984 3.165 C1.966 7.04 1.955 10.914 1.945 14.789 C1.94 16.466 1.933 18.143 1.925 19.82 C1.912 22.23 1.907 24.641 1.902 27.051 C1.897 27.801 1.892 28.551 1.887 29.324 C1.886 32.49 1.991 34.973 3 38 C1.125 38.625 1.125 38.625 -1 39 C-1.66 38.34 -2.32 37.68 -3 37 C-2.505 36.505 -2.505 36.505 -2 36 C-1.852 33.42 -1.765 30.864 -1.719 28.281 C-1.7 27.508 -1.682 26.735 -1.663 25.939 C-1.604 23.459 -1.551 20.98 -1.5 18.5 C-1.433 15.239 -1.359 11.979 -1.281 8.719 C-1.268 7.961 -1.254 7.204 -1.24 6.424 C-1.113 1.113 -1.113 1.113 0 0 Z " fill="#FCCC92" transform="translate(421,302)"/>
<path d="M0 0 C6.27 0 12.54 0 19 0 C19 6.6 19 13.2 19 20 C12.4 20 5.8 20 -1 20 C-1 19.67 -1 19.34 -1 19 C3.62 18.67 8.24 18.34 13 18 C12.34 17.67 11.68 17.34 11 17 C11.357 13.786 12.084 12.92 14.5 10.625 C17.6 7.862 17.6 7.862 18 2 C12.06 1.67 6.12 1.34 0 1 C0 0.67 0 0.34 0 0 Z " fill="#1CAFE7" transform="translate(339,537)"/>
<path d="M0 0 C0.33 0 0.66 0 1 0 C1.33 11.22 1.66 22.44 2 34 C10.151 33.961 10.151 33.961 18.302 33.91 C24.625 33.895 30.734 34.149 37 35 C37 35.33 37 35.66 37 36 C24.79 36 12.58 36 0 36 C0 24.12 0 12.24 0 0 Z " fill="#0155F0" transform="translate(300,480)"/>
<path d="M0 0 C0.99 0.33 1.98 0.66 3 1 C2.67 13.21 2.34 25.42 2 38 C7.61 38 13.22 38 19 38 C19 38.33 19 38.66 19 39 C12.73 39 6.46 39 0 39 C0 26.13 0 13.26 0 0 Z " fill="#00022F" transform="translate(517,378)"/>
<path d="M0 0 C0.33 0 0.66 0 1 0 C1 12.87 1 25.74 1 39 C0.34 38.67 -0.32 38.34 -1 38 C-1 32.39 -1 26.78 -1 21 C-6.94 21 -12.88 21 -19 21 C-19 20.34 -19 19.68 -19 19 C-12.73 19 -6.46 19 0 19 C0 12.73 0 6.46 0 0 Z " fill="#349AB8" transform="translate(457,498)"/>
<path d="M0 0 C0.33 0 0.66 0 1 0 C1 11.55 1 23.1 1 35 C1.66 35.33 2.32 35.66 3 36 C-3.6 36 -10.2 36 -17 36 C-17 29.73 -17 23.46 -17 17 C-16.67 17 -16.34 17 -16 17 C-15.67 22.61 -15.34 28.22 -15 34 C-10.05 34 -5.1 34 0 34 C0 22.78 0 11.56 0 0 Z " fill="#1BBAF1" transform="translate(475,401)"/>
<path d="M0 0 C6.27 0 12.54 0 19 0 C19 5.94 19 11.88 19 18 C18.67 18 18.34 18 18 18 C17.505 11.565 17.505 11.565 17 5 C11.39 5 5.78 5 0 5 C0 3.35 0 1.7 0 0 Z " fill="#070719" transform="translate(319,378)"/>
<path d="M0 0 C4.62 0 9.24 0 14 0 C14 0.33 14 0.66 14 1 C10.7 1 7.4 1 4 1 C4.33 7.27 4.66 13.54 5 20 C3.35 20 1.7 20 0 20 C0 13.4 0 6.8 0 0 Z " fill="#000C16" transform="translate(338,557)"/>
<path d="M0 0 C0.33 0 0.66 0 1 0 C1.33 12.54 1.66 25.08 2 38 C6.29 38.33 10.58 38.66 15 39 C15 39.33 15 39.66 15 40 C9.72 40 4.44 40 -1 40 C-1.023 34.946 -1.043 29.893 -1.055 24.839 C-1.06 23.12 -1.067 21.401 -1.075 19.683 C-1.088 17.21 -1.093 14.738 -1.098 12.266 C-1.103 11.499 -1.108 10.732 -1.113 9.942 C-1.114 6.452 -0.938 3.357 0 0 Z " fill="#F5CEA5" transform="translate(337,301)"/>
<path d="M0 0 C1.98 0.495 1.98 0.495 4 1 C3.34 1 2.68 1 2 1 C2 13.87 2 26.74 2 40 C1.34 40 0.68 40 0 40 C-0.167 34.625 -0.328 29.25 -0.482 23.875 C-0.536 22.045 -0.591 20.216 -0.648 18.386 C-0.73 15.76 -0.805 13.134 -0.879 10.508 C-0.906 9.687 -0.933 8.866 -0.961 8.02 C-1.114 2.228 -1.114 2.228 0 0 Z " fill="#0FA3FC" transform="translate(476,396)"/>
<path d="M0 0 C0.66 0 1.32 0 2 0 C2 1.98 2 3.96 2 6 C-17.47 6 -36.94 6 -57 6 C-57 5.67 -57 5.34 -57 5 C-56.36 4.996 -55.719 4.993 -55.06 4.989 C-48.392 4.947 -41.725 4.878 -35.058 4.792 C-32.57 4.764 -30.082 4.743 -27.594 4.729 C-24.017 4.708 -20.44 4.661 -16.863 4.609 C-15.752 4.608 -14.64 4.607 -13.495 4.606 C-7.337 4.552 -7.337 4.552 -1.884 1.962 C-1.262 1.314 -0.64 0.667 0 0 Z " fill="#00071A" transform="translate(475,232)"/>
<path d="M0 0 C12.87 0 25.74 0 39 0 C39 0.99 39 1.98 39 3 C26.13 3 13.26 3 0 3 C0 2.01 0 1.02 0 0 Z " fill="#001223" transform="translate(378,176)"/>
<path d="M0 0 C6.6 0 13.2 0 20 0 C20 6.6 20 13.2 20 20 C13.4 20 6.8 20 0 20 C0 19.67 0 19.34 0 19 C8.415 18.505 8.415 18.505 17 18 C17 12.39 17 6.78 17 1 C11.39 1 5.78 1 0 1 C0 0.67 0 0.34 0 0 Z " fill="#011242" transform="translate(299,358)"/>
<path d="M0 0 C5.94 0 11.88 0 18 0 C18 12.21 18 24.42 18 37 C16.02 37 14.04 37 12 37 C12 36.01 12 35.02 12 34 C13.65 34.66 15.3 35.32 17 36 C17 24.45 17 12.9 17 1 C11.72 1 6.44 1 1 1 C1 5.95 1 10.9 1 16 C0.67 16 0.34 16 0 16 C0 10.72 0 5.44 0 0 Z " fill="#0654EF" transform="translate(458,240)"/>
<path d="M0 0 C1.32 0 2.64 0 4 0 C3.125 4.75 3.125 4.75 2 7 C2.66 7 3.32 7 4 7 C3.477 9.763 2.891 12.326 2 15 C0.35 15.33 -1.3 15.66 -3 16 C-4.005 12.985 -4.103 10.958 -4.062 7.812 C-4.053 6.911 -4.044 6.01 -4.035 5.082 C-4.024 4.395 -4.012 3.708 -4 3 C-3.34 3 -2.68 3 -2 3 C-2 5.64 -2 8.28 -2 11 C-1.34 10.67 -0.68 10.34 0 10 C0 6.7 0 3.4 0 0 Z " fill="#FDCA94" transform="translate(344,281)"/>
<path d="M0 0 C0.66 0 1.32 0 2 0 C1.67 11.22 1.34 22.44 1 34 C0.01 34.495 0.01 34.495 -1 35 C-1.025 30.176 -1.043 25.352 -1.055 20.529 C-1.06 18.886 -1.067 17.244 -1.075 15.602 C-1.088 13.246 -1.093 10.891 -1.098 8.535 C-1.103 7.797 -1.108 7.058 -1.113 6.297 C-1.113 4.531 -1.062 2.765 -1 1 C-0.67 0.67 -0.34 0.34 0 0 Z " fill="#00BFF6" transform="translate(295,270)"/>
<path d="M0 0 C1.65 0 3.3 0 5 0 C5.33 2.31 5.66 4.62 6 7 C5.34 7 4.68 7 4 7 C4 9.64 4 12.28 4 15 C2.68 14.67 1.36 14.34 0 14 C0 9.38 0 4.76 0 0 Z " fill="#FDCB92" transform="translate(350,281)"/>
<path d="M0 0 C0.33 0 0.66 0 1 0 C1 13.2 1 26.4 1 40 C-5.27 40 -11.54 40 -18 40 C-18 39.34 -18 38.68 -18 38 C-12.333 38 -6.667 38 -1 38 C-0.67 25.46 -0.34 12.92 0 0 Z " fill="#00021F" transform="translate(297,476)"/>
<path d="M0 0 C2.646 -0.027 5.292 -0.047 7.938 -0.062 C8.692 -0.071 9.447 -0.079 10.225 -0.088 C12.15 -0.097 14.075 -0.052 16 0 C17 1 17 1 17.098 4.379 C17.091 5.773 17.079 7.168 17.062 8.562 C17.058 9.273 17.053 9.984 17.049 10.717 C17.037 12.478 17.019 14.239 17 16 C16.67 16 16.34 16 16 16 C15.67 11.05 15.34 6.1 15 1 C11.37 1 7.74 1 4 1 C4.33 4.3 4.66 7.6 5 11 C4.01 11.33 3.02 11.66 2 12 C2 9.36 2 6.72 2 4 C1.34 4 0.68 4 0 4 C0 2.68 0 1.36 0 0 Z " fill="#F4CCA6" transform="translate(340,280)"/>
<path d="M0 0 C0.33 0 0.66 0 1 0 C1.33 12.54 1.66 25.08 2 38 C13.472 38.685 13.472 38.685 18 37 C18.33 38.32 18.66 39.64 19 41 C12.73 40.67 6.46 40.34 0 40 C0 26.8 0 13.6 0 0 Z " fill="#000226" transform="translate(438,476)"/>
<path d="M0 0 C0.66 0 1.32 0 2 0 C2.027 1.958 2.046 3.917 2.062 5.875 C2.074 6.966 2.086 8.056 2.098 9.18 C2 12 2 12 1 14 C6.61 14.33 12.22 14.66 18 15 C18.33 15.66 18.66 16.32 19 17 C12.73 17 6.46 17 0 17 C0 11.39 0 5.78 0 0 Z " fill="#000C1D" transform="translate(418,182)"/>
<path d="M0 0 C12.87 0 25.74 0 39 0 C39 6.6 39 13.2 39 20 C38.67 20 38.34 20 38 20 C37.67 14.39 37.34 8.78 37 3 C33.395 1.798 30.027 1.77 26.27 1.684 C25.144 1.652 25.144 1.652 23.996 1.621 C21.601 1.555 19.207 1.496 16.812 1.438 C15.188 1.394 13.564 1.351 11.939 1.307 C7.96 1.2 3.98 1.098 0 1 C0 0.67 0 0.34 0 0 Z " fill="#2449B5" transform="translate(478,577)"/>
<path d="M0 0 C0.928 0.206 1.856 0.413 2.812 0.625 C1.822 1.12 1.822 1.12 0.812 1.625 C0.833 2.574 0.854 3.522 0.875 4.5 C0.812 7.625 0.812 7.625 -0.188 9.625 C-3.25 10.25 -3.25 10.25 -6.188 10.625 C-6.188 7.625 -6.188 4.625 -6.188 1.625 C-3.188 -0.375 -3.188 -0.375 0 0 Z " fill="#020305" transform="translate(427.1875,259.375)"/>
<path d="M0 0 C6.27 0 12.54 0 19 0 C19 0.33 19 0.66 19 1 C11.08 1.495 11.08 1.495 3 2 C1.798 5.605 1.77 8.973 1.684 12.73 C1.663 13.481 1.642 14.231 1.621 15.004 C1.555 17.399 1.496 19.793 1.438 22.188 C1.394 23.812 1.351 25.436 1.307 27.061 C1.2 31.04 1.098 35.02 1 39 C0.67 39 0.34 39 0 39 C0 26.13 0 13.26 0 0 Z " fill="#1D4AB3" transform="translate(219,378)"/>
<path d="M0 0 C0.33 0 0.66 0 1 0 C1 6.27 1 12.54 1 19 C-5.27 19 -11.54 19 -18 19 C-18 18.01 -18 17.02 -18 16 C-12.39 16 -6.78 16 -1 16 C-0.67 10.72 -0.34 5.44 0 0 Z " fill="#00052E" transform="translate(317,200)"/>
<path d="M0 0 C0.33 0 0.66 0 1 0 C1 7.92 1 15.84 1 24 C2.65 24.33 4.3 24.66 6 25 C6 25.33 6 25.66 6 26 C2.04 26.495 2.04 26.495 -2 27 C-2.059 23.813 -2.094 20.625 -2.125 17.438 C-2.142 16.542 -2.159 15.647 -2.176 14.725 C-2.215 9.399 -1.755 5.036 0 0 Z " fill="#0EA9F9" transform="translate(280,530)"/>
<path d="M0 0 C0.66 0 1.32 0 2 0 C2.168 2.271 2.334 4.542 2.5 6.812 C2.593 8.077 2.686 9.342 2.781 10.645 C2.919 12.76 3 14.88 3 17 C8.28 17.33 13.56 17.66 19 18 C19 18.33 19 18.66 19 19 C12.73 19 6.46 19 0 19 C0 12.73 0 6.46 0 0 Z " fill="#11A9FC" transform="translate(238,379)"/>
<path d="M0 0 C0.33 0 0.66 0 1 0 C1.33 6.6 1.66 13.2 2 20 C8.27 20.33 14.54 20.66 21 21 C20.67 22.32 20.34 23.64 20 25 C20 24.34 20 23.68 20 23 C18.952 23 17.904 23 16.824 23 C11.883 23 6.941 23 2 23 C0 21 0 21 -0.227 18.845 C-0.217 17.976 -0.206 17.107 -0.195 16.211 C-0.189 15.27 -0.182 14.329 -0.176 13.359 C-0.159 12.375 -0.142 11.39 -0.125 10.375 C-0.116 9.382 -0.107 8.39 -0.098 7.367 C-0.074 4.911 -0.041 2.456 0 0 Z " fill="#0553F3" transform="translate(236,438)"/>
<path d="M0 0 C0.99 0 1.98 0 3 0 C3 4.95 3 9.9 3 15 C1.68 14.67 0.36 14.34 -1 14 C-1.027 11.854 -1.046 9.708 -1.062 7.562 C-1.074 6.368 -1.086 5.173 -1.098 3.941 C-1 1 -1 1 0 0 Z " fill="#04BEFE" transform="translate(423,241)"/>
<path d="M0 0 C0.33 0 0.66 0 1 0 C1 6.6 1 13.2 1 20 C-5.27 20 -11.54 20 -18 20 C-17.67 19.34 -17.34 18.68 -17 18 C-14.278 17.687 -11.668 17.487 -8.938 17.375 C-5.008 17.189 -5.008 17.189 -1 17 C-0.67 11.39 -0.34 5.78 0 0 Z " fill="#00072C" transform="translate(277,517)"/>
<path d="M0 0 C0.33 0 0.66 0 1 0 C1.33 5.61 1.66 11.22 2 17 C7.22 17.25 7.22 17.25 12.441 17.478 C14.299 17.58 16.151 17.787 18 18 C18.33 18.66 18.66 19.32 19 20 C12.73 20 6.46 20 0 20 C0 13.4 0 6.8 0 0 Z " fill="#00072C" transform="translate(458,517)"/>
<path d="M0 0 C0.33 0 0.66 0 1 0 C1 2.64 1 5.28 1 8 C1.866 7.67 2.733 7.34 3.625 7 C6.957 6.013 9.552 5.836 13 6 C13 6.99 13 7.98 13 9 C12.031 9.124 11.061 9.248 10.062 9.375 C9.052 9.581 8.041 9.788 7 10 C6.67 10.66 6.34 11.32 6 12 C4.02 12 2.04 12 0 12 C0 8.04 0 4.08 0 0 Z " fill="#FACB9C" transform="translate(339,385)"/>
<path d="M0 0 C2.31 0 4.62 0 7 0 C7 0.33 7 0.66 7 1 C5.35 1.33 3.7 1.66 2 2 C1.67 5.3 1.34 8.6 1 12 C1.66 12 2.32 12 3 12 C3 13.32 3 14.64 3 16 C8.28 16.33 13.56 16.66 19 17 C19 17.33 19 17.66 19 18 C12.73 18 6.46 18 0 18 C0 12.06 0 6.12 0 0 Z " fill="#16BAED" transform="translate(379,180)"/>
<path d="M0 0 C0.99 0.66 1.98 1.32 3 2 C1 4 1 4 -2.624 4.135 C-4.179 4.093 -5.734 4.039 -7.289 3.977 C-8.517 3.939 -8.517 3.939 -9.769 3.901 C-12.388 3.818 -15.006 3.722 -17.625 3.625 C-19.398 3.567 -21.172 3.509 -22.945 3.453 C-27.297 3.313 -31.649 3.16 -36 3 C-36 2.67 -36 2.34 -36 2 C-34.524 1.962 -34.524 1.962 -33.018 1.924 C-29.367 1.83 -25.716 1.73 -22.066 1.628 C-20.486 1.584 -18.906 1.543 -17.325 1.503 C-15.054 1.445 -12.783 1.381 -10.512 1.316 C-9.805 1.3 -9.099 1.283 -8.371 1.266 C-5.334 1.174 -2.904 0.968 0 0 Z " fill="#0F50E2" transform="translate(259,576)"/>
<path d="M0 0 C0.33 0.99 0.66 1.98 1 3 C10.9 2.505 10.9 2.505 21 2 C20.67 3.32 20.34 4.64 20 6 C13.4 5.67 6.8 5.34 0 5 C0 3.35 0 1.7 0 0 Z " fill="#0E56E0" transform="translate(478,432)"/>
<path d="M0 0 C0.99 0.495 0.99 0.495 2 1 C2 1.66 2 2.32 2 3 C3.65 2.67 5.3 2.34 7 2 C7.043 4 7.041 6 7 8 C6 9 6 9 2.938 9.062 C1.968 9.042 0.999 9.021 0 9 C0 6.03 0 3.06 0 0 Z " fill="#0553FD" transform="translate(419,288)"/>
<path d="M0 0 C6.93 0 13.86 0 21 0 C21 6.6 21 13.2 21 20 C20.67 20 20.34 20 20 20 C20 13.73 20 7.46 20 1 C14.72 1 9.44 1 4 1 C4 1.66 4 2.32 4 3 C2.68 2.67 1.36 2.34 0 2 C0 1.34 0 0.68 0 0 Z " fill="#0175F1" transform="translate(278,557)"/>
<path d="M0 0 C0.33 0 0.66 0 1 0 C1.33 2.64 1.66 5.28 2 8 C2.595 8.02 3.191 8.04 3.804 8.06 C6.495 8.155 9.185 8.265 11.875 8.375 C12.812 8.406 13.749 8.437 14.715 8.469 C15.611 8.507 16.507 8.546 17.43 8.586 C18.671 8.633 18.671 8.633 19.937 8.681 C22 9 22 9 24 11 C16.08 11 8.16 11 0 11 C-1.627 7.747 -1.115 4.608 -1 1 C-0.67 0.67 -0.34 0.34 0 0 Z " fill="#000916" transform="translate(456,429)"/>
<path d="M0 0 C3.63 0 7.26 0 11 0 C10.67 0.66 10.34 1.32 10 2 C7.69 2 5.38 2 3 2 C2.951 3.143 2.902 4.287 2.852 5.465 C2.777 6.956 2.701 8.447 2.625 9.938 C2.594 10.692 2.563 11.447 2.531 12.225 C2.427 14.155 2.221 16.079 2 18 C1.34 18.33 0.68 18.66 0 19 C0 12.73 0 6.46 0 0 Z " fill="#EDFEFD" transform="translate(458,279)"/>
<path d="M0 0 C6.6 0 13.2 0 20 0 C20 0.66 20 1.32 20 2 C18.784 1.988 17.569 1.977 16.316 1.965 C14.732 1.955 13.147 1.946 11.562 1.938 C10.76 1.929 9.958 1.921 9.131 1.912 C7.087 1.903 5.043 1.948 3 2 C1.004 3.996 1.59 7.817 1.438 10.562 C1.394 11.273 1.351 11.984 1.307 12.717 C1.2 14.478 1.1 16.239 1 18 C0.67 18 0.34 18 0 18 C0 12.06 0 6.12 0 0 Z " fill="#005CEA" transform="translate(438,558)"/>
<path d="M0 0 C5.28 0 10.56 0 16 0 C16 0.33 16 0.66 16 1 C14.35 1.33 12.7 1.66 11 2 C11.33 3.65 11.66 5.3 12 7 C11.01 7.495 11.01 7.495 10 8 C10 7.34 10 6.68 10 6 C8.68 6 7.36 6 6 6 C6 4.68 6 3.36 6 2 C3.69 2 1.38 2 -1 2 C-0.67 1.34 -0.34 0.68 0 0 Z " fill="#09BBFC" transform="translate(381,538)"/>
<path d="M0 0 C0 0.99 0 1.98 0 3 C-6.6 3 -13.2 3 -20 3 C-20 2.34 -20 1.68 -20 1 C-17.417 0.832 -14.833 0.665 -12.25 0.5 C-11.52 0.452 -10.791 0.405 -10.039 0.355 C-6.682 0.142 -3.366 0 0 0 Z " fill="#1B4DCC" transform="translate(378,534)"/>
<path d="M0 0 C1.32 0 2.64 0 4 0 C4 2.64 4 5.28 4 8 C-2.6 8 -9.2 8 -16 8 C-16 7.67 -16 7.34 -16 7 C-10.72 7 -5.44 7 0 7 C0 4.69 0 2.38 0 0 Z " fill="#0C57EB" transform="translate(452,290)"/>
<path d="M0 0 C0.33 0 0.66 0 1 0 C1 6.27 1 12.54 1 19 C0.34 19 -0.32 19 -1 19 C-1 20.98 -1 22.96 -1 25 C-1.66 25 -2.32 25 -3 25 C-3 21.7 -3 18.4 -3 15 C-2.01 15 -1.02 15 0 15 C0 10.05 0 5.1 0 0 Z " fill="#15BCF7" transform="translate(297,359)"/>
<path d="M0 0 C0 1.65 0 3.3 0 5 C-10.56 5 -21.12 5 -32 5 C-32 4.67 -32 4.34 -32 4 C-22.43 4 -12.86 4 -3 4 C-3 3.01 -3 2.02 -3 1 C-1 0 -1 0 0 0 Z " fill="#010116" transform="translate(557,591)"/>
<path d="M0 0 C0.33 0 0.66 0 1 0 C1 6.93 1 13.86 1 21 C0.34 21 -0.32 21 -1 21 C-2.283 17.15 -2.066 14.053 -2 10 C-1.34 10 -0.68 10 0 10 C0 6.7 0 3.4 0 0 Z M-3 21 C-1 22 -1 22 -1 22 Z " fill="#EECAA5" transform="translate(357,358)"/>
<path d="M0 0 C6.27 0 12.54 0 19 0 C16.173 2.827 13.294 2.417 9.5 2.562 C4.6 2.602 4.6 2.602 0 4 C0 2.68 0 1.36 0 0 Z " fill="#0065EA" transform="translate(418,577)"/>
<path d="M0 0 C2.934 2.934 2.462 6.183 2.625 10.125 C2.664 10.879 2.702 11.633 2.742 12.41 C2.837 14.273 2.919 16.136 3 18 C2.01 18 1.02 18 0 18 C0 12.06 0 6.12 0 0 Z " fill="#F3D5B6" transform="translate(417,339)"/>
<path d="M0 0 C3.96 0 7.92 0 12 0 C12 6.6 12 13.2 12 20 C11.67 20 11.34 20 11 20 C10.67 14.06 10.34 8.12 10 2 C7.69 1.67 5.38 1.34 3 1 C3 1.66 3 2.32 3 3 C2.01 3 1.02 3 0 3 C0 2.01 0 1.02 0 0 Z " fill="#F4F5F5" transform="translate(366,557)"/>
<path d="M0 0 C5 1 5 1 8 3 C8 3.66 8 4.32 8 5 C5.69 5 3.38 5 1 5 C1 8.3 1 11.6 1 15 C0.67 15 0.34 15 0 15 C0 10.05 0 5.1 0 0 Z " fill="#06050B" transform="translate(199,499)"/>
<path d="M0 0 C1.65 0 3.3 0 5 0 C4.835 0.598 4.67 1.196 4.5 1.812 C3.889 4.113 3.889 4.113 4 7 C2.68 7.99 1.36 8.98 0 10 C0 6.7 0 3.4 0 0 Z " fill="#01030B" transform="translate(538,418)"/>
<path d="M0 0 C4.62 0 9.24 0 14 0 C14.33 0.66 14.66 1.32 15 2 C11.37 1.67 7.74 1.34 4 1 C3.67 2.32 3.34 3.64 3 5 C2.01 5.33 1.02 5.66 0 6 C0 4.02 0 2.04 0 0 Z " fill="#0E50F8" transform="translate(500,379)"/>
<path d="M0 0 C1.32 0.66 2.64 1.32 4 2 C3.67 2.99 3.34 3.98 3 5 C6.63 5.33 10.26 5.66 14 6 C14 6.33 14 6.66 14 7 C9.05 7 4.1 7 -1 7 C-0.67 4.69 -0.34 2.38 0 0 Z " fill="#EFF0EC" transform="translate(459,510)"/>
<path d="M0 0 C2.31 0 4.62 0 7 0 C7 0.66 7 1.32 7 2 C6.01 2 5.02 2 4 2 C3.711 2.804 3.423 3.609 3.125 4.438 C2 7 2 7 0 8 C0 5.36 0 2.72 0 0 Z " fill="#FAFAF8" transform="translate(537,498)"/>
<path d="M0 0 C1.32 0 2.64 0 4 0 C4.082 3.044 3.976 5.072 3 8 C2.34 8 1.68 8 1 8 C0.67 8.66 0.34 9.32 0 10 C0 6.7 0 3.4 0 0 Z " fill="#060106" transform="translate(458,368)"/>
<path d="M0 0 C0.66 0 1.32 0 2 0 C2 1.65 2 3.3 2 5 C2.66 5 3.32 5 4 5 C3.67 6.65 3.34 8.3 3 10 C2.34 10 1.68 10 1 10 C-1.567 6.15 -0.833 4.414 0 0 Z " fill="#0058F9" transform="translate(420,281)"/>
<path d="M0 0 C2.007 0.287 4.009 0.619 6 1 C6 1.66 6 2.32 6 3 C0.06 3 -5.88 3 -12 3 C-12 2.34 -12 1.68 -12 1 C-11.218 1.012 -10.435 1.023 -9.629 1.035 C-8.617 1.044 -7.605 1.053 -6.562 1.062 C-5.048 1.08 -5.048 1.08 -3.504 1.098 C-1.06 1.286 -1.06 1.286 0 0 Z " fill="#010318" transform="translate(291,513)"/>
<path d="M0 0 C1.98 0 3.96 0 6 0 C5.355 0.316 4.711 0.632 4.047 0.957 C0.892 4.106 1.328 7.39 1.25 11.688 C1.22 12.485 1.191 13.282 1.16 14.104 C1.09 16.068 1.043 18.034 1 20 C0.67 20 0.34 20 0 20 C0 13.4 0 6.8 0 0 Z " fill="#F6F4F3" transform="translate(358,557)"/>
<path d="M0 0 C0 6.6 0 13.2 0 20 C-0.33 20 -0.66 20 -1 20 C-1.037 18.796 -1.075 17.592 -1.113 16.352 C-1.179 14.776 -1.245 13.2 -1.312 11.625 C-1.346 10.434 -1.346 10.434 -1.381 9.219 C-1.478 7.138 -1.73 5.066 -2 3 C-2.99 2.34 -3.98 1.68 -5 1 C-3 0 -3 0 0 0 Z " fill="#1B4FB7" transform="translate(517,577)"/>
<path d="M0 0 C1.134 0.021 2.269 0.041 3.438 0.062 C3.107 2.043 2.778 4.022 2.438 6.062 C1.447 5.402 0.458 4.743 -0.562 4.062 C-0.562 3.402 -0.562 2.743 -0.562 2.062 C-1.882 1.733 -3.202 1.402 -4.562 1.062 C-3.562 0.062 -3.562 0.062 0 0 Z " fill="#FBFAF7" transform="translate(195.5625,497.9375)"/>
<path d="M0 0 C0.66 0.33 1.32 0.66 2 1 C2 3.64 2 6.28 2 9 C1.01 9 0.02 9 -1 9 C-1.098 2.848 -1.098 2.848 -1 1 C-0.67 0.67 -0.34 0.34 0 0 Z " fill="#050107" transform="translate(195,421)"/>
<path d="M0 0 C4.62 0 9.24 0 14 0 C13.67 0.99 13.34 1.98 13 3 C12.01 3 11.02 3 10 3 C10 2.34 10 1.68 10 1 C6.37 1.33 2.74 1.66 -1 2 C-0.67 1.34 -0.34 0.68 0 0 Z " fill="#0F50F7" transform="translate(222,379)"/>
<path d="M0 0 C6.6 0 13.2 0 20 0 C19.67 0.99 19.34 1.98 19 3 C18.01 2.67 17.02 2.34 16 2 C13.267 1.772 10.55 1.583 7.812 1.438 C7.063 1.394 6.313 1.351 5.541 1.307 C3.694 1.201 1.847 1.1 0 1 C0 0.67 0 0.34 0 0 Z " fill="#0CBBF4" transform="translate(272,359)"/>
<path d="M0 0 C0 1.98 0 3.96 0 6 C-2.31 5.67 -4.62 5.34 -7 5 C-2.25 0 -2.25 0 0 0 Z " fill="#040211" transform="translate(477,232)"/>
<path d="M0 0 C0.66 0.33 1.32 0.66 2 1 C1.67 1.99 1.34 2.98 1 4 C-4.28 3.67 -9.56 3.34 -15 3 C-15 2.67 -15 2.34 -15 2 C-14.085 1.939 -13.17 1.879 -12.227 1.816 C-10.444 1.691 -10.444 1.691 -8.625 1.562 C-7.442 1.481 -6.258 1.4 -5.039 1.316 C-2.085 1.189 -2.085 1.189 0 0 Z " fill="#010319" transform="translate(455,513)"/>
<path d="M0 0 C2.31 0.66 4.62 1.32 7 2 C6.67 2.66 6.34 3.32 6 4 C3.69 4 1.38 4 -1 4 C-0.67 2.68 -0.34 1.36 0 0 Z " fill="#04BAFE" transform="translate(392,193)"/>
<path d="M0 0 C0.33 0.66 0.66 1.32 1 2 C0.67 2.66 0.34 3.32 0 4 C-0.99 3.67 -1.98 3.34 -3 3 C-4.892 2.778 -6.789 2.594 -8.688 2.438 C-9.681 2.354 -10.675 2.27 -11.699 2.184 C-12.838 2.093 -12.838 2.093 -14 2 C-14 1.67 -14 1.34 -14 1 C-9.38 0.67 -4.76 0.34 0 0 Z " fill="#005BE6" transform="translate(317,577)"/>
<path d="M0 0 C0.33 0 0.66 0 1 0 C2.125 7.75 2.125 7.75 1 10 C0.34 9.67 -0.32 9.34 -1 9 C-1.75 5.562 -1.75 5.562 -2 2 C-1.34 1.34 -0.68 0.68 0 0 Z " fill="#0ABFF4" transform="translate(356,545)"/>
<path d="M0 0 C0.99 0.33 1.98 0.66 3 1 C2.67 3.97 2.34 6.94 2 10 C1.67 10 1.34 10 1 10 C0.639 8.523 0.286 7.043 -0.062 5.562 C-0.26 4.739 -0.457 3.915 -0.66 3.066 C-0.828 2.044 -0.828 2.044 -1 1 C-0.67 0.67 -0.34 0.34 0 0 Z " fill="#0454F3" transform="translate(339,514)"/>
<path d="M0 0 C0.99 0 1.98 0 3 0 C1.814 3.375 0.724 5.647 -2 8 C-2.201 4.284 -2.152 3.228 0 0 Z " fill="#04000F" transform="translate(310,359)"/>
<path d="M0 0 C1.32 0 2.64 0 4 0 C3.67 1.32 3.34 2.64 3 4 C1.68 4.33 0.36 4.66 -1 5 C-0.67 3.35 -0.34 1.7 0 0 Z " fill="#FBFCF0" transform="translate(260,499)"/>
<path d="M0 0 C0.99 0 1.98 0 3 0 C3 0.66 3 1.32 3 2 C4.32 2 5.64 2 7 2 C7 2.66 7 3.32 7 4 C4.69 4 2.38 4 0 4 C0 2.68 0 1.36 0 0 Z " fill="#0157F1" transform="translate(201,420)"/>
<path d="M0 0 C0.33 0.66 0.66 1.32 1 2 C3.97 2 6.94 2 10 2 C10 2.33 10 2.66 10 3 C4.06 3.495 4.06 3.495 -2 4 C-2 3.01 -2 2.02 -2 1 C-1.34 0.67 -0.68 0.34 0 0 Z " fill="#F7CA9E" transform="translate(358,378)"/>
<path d="M0 0 C1.32 0 2.64 0 4 0 C4 1.32 4 2.64 4 4 C2.35 4 0.7 4 -1 4 C-0.67 2.68 -0.34 1.36 0 0 Z " fill="#090909" transform="translate(553,577)"/>
<path d="M0 0 C0.33 0 0.66 0 1 0 C1 2.64 1 5.28 1 8 C0.01 8 -0.98 8 -2 8 C-1.125 1.125 -1.125 1.125 0 0 Z " fill="#0059F2" transform="translate(507,456)"/>
<path d="M0 0 C0 1.32 0 2.64 0 4 C-2.31 4 -4.62 4 -7 4 C-5.533 1.066 -3.26 0 0 0 Z " fill="#0059F1" transform="translate(535,420)"/>
<path d="M0 0 C2.31 0 4.62 0 7 0 C6.67 0.99 6.34 1.98 6 3 C4.02 3 2.04 3 0 3 C0 2.01 0 1.02 0 0 Z " fill="#0B0004" transform="translate(443,394)"/>
<path d="M0 0 C1.65 0 3.3 0 5 0 C5 0.99 5 1.98 5 3 C3.02 3 1.04 3 -1 3 C-0.67 2.01 -0.34 1.02 0 0 Z " fill="#FEC994" transform="translate(346,394)"/>
<path d="M0 0 C2.475 0.495 2.475 0.495 5 1 C5 1.99 5 2.98 5 4 C3.35 3.67 1.7 3.34 0 3 C0 2.01 0 1.02 0 0 Z " fill="#03BEF3" transform="translate(272,418)"/>
<path d="M0 0 C1.98 0 3.96 0 6 0 C5.67 0.99 5.34 1.98 5 3 C3.35 3 1.7 3 0 3 C0 2.01 0 1.02 0 0 Z " fill="#03BEF2" transform="translate(281,263)"/>
</svg>